G75*
G70*
%OFA0B0*%
%FSLAX24Y24*%
%IPPOS*%
%LPD*%
%AMOC8*
5,1,8,0,0,1.08239X$1,22.5*
%
%ADD10C,0.0000*%
%ADD11C,0.0030*%
%ADD12C,0.0040*%
%ADD13C,0.0160*%
%ADD14C,0.0060*%
%ADD15C,0.0080*%
%ADD16C,0.0120*%
%ADD17C,0.0100*%
%ADD18C,0.0200*%
%ADD19R,0.0500X0.0750*%
%ADD20R,0.0300X0.0700*%
%ADD21R,0.0500X0.0300*%
D10*
X000181Y000181D02*
X000181Y019866D01*
X019866Y019866D01*
X019866Y000181D01*
X000181Y000181D01*
D11*
X001321Y001120D02*
X001370Y001071D01*
X001467Y001071D01*
X001515Y001120D01*
X001515Y001168D01*
X001467Y001217D01*
X001418Y001217D01*
X001467Y001217D02*
X001515Y001265D01*
X001515Y001313D01*
X001467Y001362D01*
X001370Y001362D01*
X001321Y001313D01*
X001616Y001120D02*
X001664Y001120D01*
X001664Y001071D01*
X001616Y001071D01*
X001616Y001120D01*
X001763Y001120D02*
X001812Y001071D01*
X001909Y001071D01*
X001957Y001120D01*
X001957Y001168D01*
X001909Y001217D01*
X001860Y001217D01*
X001909Y001217D02*
X001957Y001265D01*
X001957Y001313D01*
X001909Y001362D01*
X001812Y001362D01*
X001763Y001313D01*
X002058Y001362D02*
X002058Y001168D01*
X002155Y001071D01*
X002251Y001168D01*
X002251Y001362D01*
X002056Y002071D02*
X001911Y002071D01*
X001911Y002362D01*
X002056Y002362D01*
X002104Y002313D01*
X002104Y002120D01*
X002056Y002071D01*
X001810Y002071D02*
X001810Y002362D01*
X001616Y002362D02*
X001810Y002071D01*
X001616Y002071D02*
X001616Y002362D01*
X001515Y002313D02*
X001467Y002362D01*
X001370Y002362D01*
X001321Y002313D01*
X001321Y002120D01*
X001370Y002071D01*
X001467Y002071D01*
X001515Y002120D01*
X001515Y002217D01*
X001418Y002217D01*
X001467Y003071D02*
X001321Y003071D01*
X001321Y003362D01*
X001467Y003362D01*
X001515Y003313D01*
X001515Y003265D01*
X001467Y003217D01*
X001321Y003217D01*
X001467Y003217D02*
X001515Y003168D01*
X001515Y003120D01*
X001467Y003071D01*
X001616Y003120D02*
X001664Y003071D01*
X001761Y003071D01*
X001810Y003120D01*
X001810Y003217D01*
X001761Y003265D01*
X001713Y003265D01*
X001616Y003217D01*
X001616Y003362D01*
X001810Y003362D01*
X001761Y004071D02*
X001761Y004362D01*
X001616Y004217D01*
X001810Y004217D01*
X001515Y004217D02*
X001321Y004217D01*
X001321Y004265D02*
X001321Y004071D01*
X001321Y004265D02*
X001418Y004362D01*
X001515Y004265D01*
X001515Y004071D01*
X001467Y006071D02*
X001321Y006071D01*
X001321Y006362D01*
X001467Y006362D01*
X001515Y006313D01*
X001515Y006265D01*
X001467Y006217D01*
X001321Y006217D01*
X001467Y006217D02*
X001515Y006168D01*
X001515Y006120D01*
X001467Y006071D01*
X001616Y006217D02*
X001810Y006217D01*
X001761Y006362D02*
X001616Y006217D01*
X001761Y006071D02*
X001761Y006362D01*
X001761Y007071D02*
X001664Y007071D01*
X001616Y007120D01*
X001515Y007120D02*
X001467Y007071D01*
X001321Y007071D01*
X001321Y007362D01*
X001467Y007362D01*
X001515Y007313D01*
X001515Y007265D01*
X001467Y007217D01*
X001321Y007217D01*
X001467Y007217D02*
X001515Y007168D01*
X001515Y007120D01*
X001616Y007313D02*
X001664Y007362D01*
X001761Y007362D01*
X001810Y007313D01*
X001810Y007265D01*
X001761Y007217D01*
X001810Y007168D01*
X001810Y007120D01*
X001761Y007071D01*
X001761Y007217D02*
X001713Y007217D01*
X001810Y008071D02*
X001616Y008071D01*
X001810Y008265D01*
X001810Y008313D01*
X001761Y008362D01*
X001664Y008362D01*
X001616Y008313D01*
X001515Y008313D02*
X001467Y008362D01*
X001321Y008362D01*
X001321Y008071D01*
X001467Y008071D01*
X001515Y008120D01*
X001515Y008168D01*
X001467Y008217D01*
X001321Y008217D01*
X001467Y008217D02*
X001515Y008265D01*
X001515Y008313D01*
X001467Y009071D02*
X001321Y009071D01*
X001321Y009362D01*
X001467Y009362D01*
X001515Y009313D01*
X001515Y009265D01*
X001467Y009217D01*
X001321Y009217D01*
X001467Y009217D02*
X001515Y009168D01*
X001515Y009120D01*
X001467Y009071D01*
X001616Y009071D02*
X001810Y009071D01*
X001713Y009071D02*
X001713Y009362D01*
X001616Y009265D01*
X001664Y011071D02*
X001616Y011120D01*
X001810Y011313D01*
X001810Y011120D01*
X001761Y011071D01*
X001664Y011071D01*
X001616Y011120D02*
X001616Y011313D01*
X001664Y011362D01*
X001761Y011362D01*
X001810Y011313D01*
X001515Y011313D02*
X001467Y011362D01*
X001321Y011362D01*
X001321Y011071D01*
X001467Y011071D01*
X001515Y011120D01*
X001515Y011168D01*
X001467Y011217D01*
X001321Y011217D01*
X001467Y011217D02*
X001515Y011265D01*
X001515Y011313D01*
X001515Y012071D02*
X001515Y012265D01*
X001418Y012362D01*
X001321Y012265D01*
X001321Y012071D01*
X001321Y012217D02*
X001515Y012217D01*
X001616Y012265D02*
X001713Y012362D01*
X001713Y012071D01*
X001616Y012071D02*
X001810Y012071D01*
X001761Y013071D02*
X001664Y013071D01*
X001616Y013120D01*
X001810Y013313D01*
X001810Y013120D01*
X001761Y013071D01*
X001616Y013120D02*
X001616Y013313D01*
X001664Y013362D01*
X001761Y013362D01*
X001810Y013313D01*
X001515Y013265D02*
X001515Y013071D01*
X001515Y013217D02*
X001321Y013217D01*
X001321Y013265D02*
X001418Y013362D01*
X001515Y013265D01*
X001321Y013265D02*
X001321Y013071D01*
X001321Y014071D02*
X001321Y014362D01*
X001418Y014265D01*
X001515Y014362D01*
X001515Y014071D01*
X001616Y014120D02*
X001616Y014313D01*
X001664Y014362D01*
X001761Y014362D01*
X001810Y014313D01*
X001911Y014362D02*
X001911Y014071D01*
X002104Y014071D01*
X002205Y014071D02*
X002205Y014362D01*
X002350Y014362D01*
X002399Y014313D01*
X002399Y014217D01*
X002350Y014168D01*
X002205Y014168D01*
X002302Y014168D02*
X002399Y014071D01*
X001810Y014120D02*
X001761Y014071D01*
X001664Y014071D01*
X001616Y014120D01*
X004771Y015571D02*
X005041Y015571D01*
X005041Y015752D01*
X005041Y015848D02*
X005041Y015983D01*
X004996Y016028D01*
X004816Y016028D01*
X004771Y015983D01*
X004771Y015848D01*
X005041Y015848D01*
X005041Y016124D02*
X005041Y016304D01*
X005041Y016214D02*
X004771Y016214D01*
X004861Y016124D01*
X004861Y016400D02*
X004771Y016490D01*
X005041Y016490D01*
X005041Y016400D02*
X005041Y016580D01*
X005041Y016676D02*
X005041Y016856D01*
X005041Y016766D02*
X004771Y016766D01*
X004861Y016676D01*
X004771Y016953D02*
X004771Y017133D01*
X004816Y017133D01*
X004996Y016953D01*
X005041Y016953D01*
X007348Y015993D02*
X007472Y016117D01*
X007472Y015746D01*
X007595Y015746D02*
X007348Y015746D01*
X007716Y015808D02*
X007716Y016055D01*
X007778Y016117D01*
X007902Y016117D01*
X007963Y016055D01*
X007716Y015808D01*
X007778Y015746D01*
X007902Y015746D01*
X007963Y015808D01*
X007963Y016055D01*
X008085Y015993D02*
X008085Y015808D01*
X008146Y015746D01*
X008332Y015746D01*
X008332Y015993D01*
X008453Y015932D02*
X008577Y015932D01*
X008453Y016117D02*
X008700Y016117D01*
X008453Y016117D02*
X008453Y015746D01*
X009791Y017671D02*
X009791Y018042D01*
X009976Y018042D01*
X010038Y017980D01*
X010038Y017857D01*
X009976Y017795D01*
X009791Y017795D01*
X010160Y017857D02*
X010160Y017733D01*
X010221Y017671D01*
X010345Y017671D01*
X010406Y017733D01*
X010406Y017857D01*
X010345Y017918D01*
X010221Y017918D01*
X010160Y017857D01*
X010528Y017918D02*
X010528Y017733D01*
X010590Y017671D01*
X010651Y017733D01*
X010713Y017671D01*
X010775Y017733D01*
X010775Y017918D01*
X010896Y017857D02*
X010896Y017733D01*
X010958Y017671D01*
X011081Y017671D01*
X011143Y017795D02*
X010896Y017795D01*
X010896Y017857D02*
X010958Y017918D01*
X011081Y017918D01*
X011143Y017857D01*
X011143Y017795D01*
X011264Y017795D02*
X011388Y017918D01*
X011450Y017918D01*
X011264Y017918D02*
X011264Y017671D01*
X015196Y017821D02*
X015196Y018192D01*
X015382Y018192D01*
X015443Y018130D01*
X015443Y018007D01*
X015382Y017945D01*
X015196Y017945D01*
X015320Y017945D02*
X015443Y017821D01*
X015565Y017821D02*
X015812Y017821D01*
X015933Y017883D02*
X015995Y017821D01*
X016118Y017821D01*
X016180Y017883D01*
X016180Y017945D01*
X016118Y018007D01*
X015995Y018007D01*
X015933Y018068D01*
X015933Y018130D01*
X015995Y018192D01*
X016118Y018192D01*
X016180Y018130D01*
X016301Y018192D02*
X016301Y017821D01*
X016548Y017821D01*
X016425Y018007D02*
X016301Y018007D01*
X016301Y018192D02*
X016548Y018192D01*
X016670Y018192D02*
X016916Y018192D01*
X016793Y018192D02*
X016793Y017821D01*
X015812Y018192D02*
X015565Y018192D01*
X015565Y017821D01*
X015565Y018007D02*
X015688Y018007D01*
X017921Y017611D02*
X017921Y017426D01*
X018291Y017426D01*
X018291Y017305D02*
X018291Y017058D01*
X017921Y017058D01*
X017921Y017305D01*
X018106Y017181D02*
X018106Y017058D01*
X018168Y016937D02*
X018230Y016937D01*
X018291Y016875D01*
X018291Y016751D01*
X018230Y016690D01*
X018230Y016568D02*
X017921Y016568D01*
X017983Y016690D02*
X018045Y016690D01*
X018106Y016751D01*
X018106Y016875D01*
X018168Y016937D01*
X017983Y016937D02*
X017921Y016875D01*
X017921Y016751D01*
X017983Y016690D01*
X018230Y016568D02*
X018291Y016507D01*
X018291Y016383D01*
X018230Y016321D01*
X017921Y016321D01*
X018168Y017426D02*
X018168Y017611D01*
X018106Y017673D01*
X017983Y017673D01*
X017921Y017611D01*
X018168Y017550D02*
X018291Y017673D01*
X018345Y009292D02*
X018152Y009292D01*
X018152Y009147D01*
X018249Y009195D01*
X018297Y009195D01*
X018345Y009147D01*
X018345Y009050D01*
X018297Y009001D01*
X018200Y009001D01*
X018152Y009050D01*
X018051Y009001D02*
X017857Y009001D01*
X017954Y009001D02*
X017954Y009292D01*
X017857Y009195D01*
X017756Y009195D02*
X017708Y009147D01*
X017562Y009147D01*
X017562Y009292D02*
X017708Y009292D01*
X017756Y009243D01*
X017756Y009195D01*
X017708Y009147D02*
X017756Y009098D01*
X017756Y009050D01*
X017708Y009001D01*
X017562Y009001D01*
X017562Y009292D01*
X017562Y008292D02*
X017708Y008292D01*
X017756Y008243D01*
X017756Y008195D01*
X017708Y008147D01*
X017562Y008147D01*
X017562Y008292D02*
X017562Y008001D01*
X017708Y008001D01*
X017756Y008050D01*
X017756Y008098D01*
X017708Y008147D01*
X017857Y008195D02*
X017954Y008292D01*
X017954Y008001D01*
X017857Y008001D02*
X018051Y008001D01*
X018152Y008147D02*
X018345Y008147D01*
X018297Y008292D02*
X018297Y008001D01*
X018152Y008147D02*
X018297Y008292D01*
X018297Y007292D02*
X018345Y007243D01*
X018345Y007195D01*
X018297Y007147D01*
X018345Y007098D01*
X018345Y007050D01*
X018297Y007001D01*
X018200Y007001D01*
X018152Y007050D01*
X018051Y007001D02*
X017857Y007001D01*
X017954Y007001D02*
X017954Y007292D01*
X017857Y007195D01*
X017756Y007195D02*
X017708Y007147D01*
X017562Y007147D01*
X017562Y007292D02*
X017708Y007292D01*
X017756Y007243D01*
X017756Y007195D01*
X017708Y007147D02*
X017756Y007098D01*
X017756Y007050D01*
X017708Y007001D01*
X017562Y007001D01*
X017562Y007292D01*
X018152Y007243D02*
X018200Y007292D01*
X018297Y007292D01*
X018297Y007147D02*
X018249Y007147D01*
X018297Y006292D02*
X018200Y006292D01*
X018152Y006243D01*
X018152Y006195D01*
X018200Y006147D01*
X018345Y006147D01*
X018345Y006243D02*
X018297Y006292D01*
X018345Y006243D02*
X018345Y006050D01*
X018297Y006001D01*
X018200Y006001D01*
X018152Y006050D01*
X018051Y006050D02*
X018051Y006098D01*
X018002Y006147D01*
X017857Y006147D01*
X017857Y006292D02*
X017857Y006001D01*
X018002Y006001D01*
X018051Y006050D01*
X018002Y006147D02*
X018051Y006195D01*
X018051Y006243D01*
X018002Y006292D01*
X017857Y006292D01*
X017857Y004292D02*
X018002Y004292D01*
X018051Y004243D01*
X018051Y004195D01*
X018002Y004147D01*
X017857Y004147D01*
X017857Y004292D02*
X017857Y004001D01*
X018002Y004001D01*
X018051Y004050D01*
X018051Y004098D01*
X018002Y004147D01*
X018152Y004195D02*
X018152Y004243D01*
X018200Y004292D01*
X018297Y004292D01*
X018345Y004243D01*
X018345Y004195D01*
X018297Y004147D01*
X018200Y004147D01*
X018152Y004195D01*
X018200Y004147D02*
X018152Y004098D01*
X018152Y004050D01*
X018200Y004001D01*
X018297Y004001D01*
X018345Y004050D01*
X018345Y004098D01*
X018297Y004147D01*
X018345Y003292D02*
X018152Y003292D01*
X018051Y003243D02*
X018051Y003195D01*
X018002Y003147D01*
X017857Y003147D01*
X017857Y003292D02*
X017857Y003001D01*
X018002Y003001D01*
X018051Y003050D01*
X018051Y003098D01*
X018002Y003147D01*
X018051Y003243D02*
X018002Y003292D01*
X017857Y003292D01*
X018152Y003050D02*
X018152Y003001D01*
X018152Y003050D02*
X018345Y003243D01*
X018345Y003292D01*
X018297Y002292D02*
X018152Y002292D01*
X018152Y002001D01*
X018297Y002001D01*
X018345Y002050D01*
X018345Y002243D01*
X018297Y002292D01*
X018051Y002292D02*
X018051Y002001D01*
X017857Y002292D01*
X017857Y002001D01*
X017756Y002050D02*
X017708Y002001D01*
X017611Y002001D01*
X017562Y002050D01*
X017562Y002243D01*
X017611Y002292D01*
X017708Y002292D01*
X017756Y002243D01*
X017756Y002147D02*
X017659Y002147D01*
X017756Y002147D02*
X017756Y002050D01*
X017857Y001292D02*
X017857Y001147D01*
X017954Y001195D01*
X018002Y001195D01*
X018051Y001147D01*
X018051Y001050D01*
X018002Y001001D01*
X017905Y001001D01*
X017857Y001050D01*
X017783Y000862D02*
X017687Y000862D01*
X017638Y000813D01*
X017638Y000620D01*
X017832Y000813D01*
X017832Y000620D01*
X017783Y000571D01*
X017687Y000571D01*
X017638Y000620D01*
X017537Y000571D02*
X017344Y000571D01*
X017537Y000765D01*
X017537Y000813D01*
X017489Y000862D01*
X017392Y000862D01*
X017344Y000813D01*
X017783Y000862D02*
X017832Y000813D01*
X017933Y000765D02*
X018030Y000862D01*
X018030Y000571D01*
X018126Y000571D02*
X017933Y000571D01*
X018228Y000620D02*
X018276Y000571D01*
X018373Y000571D01*
X018421Y000620D01*
X018421Y000717D01*
X018373Y000765D01*
X018324Y000765D01*
X018228Y000717D01*
X018228Y000862D01*
X018421Y000862D01*
X018249Y001001D02*
X018152Y001098D01*
X018152Y001292D01*
X018051Y001292D02*
X017857Y001292D01*
X018249Y001001D02*
X018345Y001098D01*
X018345Y001292D01*
X016901Y000862D02*
X016901Y000571D01*
X016853Y000571D02*
X016949Y000571D01*
X016753Y000571D02*
X016656Y000571D01*
X016705Y000571D02*
X016705Y000765D01*
X016656Y000765D01*
X016556Y000765D02*
X016507Y000765D01*
X016411Y000668D01*
X016411Y000571D02*
X016411Y000765D01*
X016310Y000717D02*
X016310Y000620D01*
X016261Y000571D01*
X016116Y000571D01*
X016116Y000475D02*
X016116Y000765D01*
X016261Y000765D01*
X016310Y000717D01*
X016015Y000717D02*
X015821Y000717D01*
X015821Y000765D02*
X015918Y000862D01*
X016015Y000765D01*
X016015Y000571D01*
X015821Y000571D02*
X015821Y000765D01*
X016705Y000862D02*
X016705Y000910D01*
X016853Y000862D02*
X016901Y000862D01*
X013828Y006746D02*
X013828Y007117D01*
X014075Y007117D01*
X013952Y006932D02*
X013828Y006932D01*
X013707Y006993D02*
X013707Y006746D01*
X013521Y006746D01*
X013460Y006808D01*
X013460Y006993D01*
X013338Y007055D02*
X013091Y006808D01*
X013153Y006746D01*
X013277Y006746D01*
X013338Y006808D01*
X013338Y007055D01*
X013277Y007117D01*
X013153Y007117D01*
X013091Y007055D01*
X013091Y006808D01*
X012970Y006746D02*
X012723Y006746D01*
X012847Y006746D02*
X012847Y007117D01*
X012723Y006993D01*
X006973Y001630D02*
X006973Y001568D01*
X006912Y001507D01*
X006973Y001445D01*
X006973Y001383D01*
X006912Y001321D01*
X006788Y001321D01*
X006726Y001383D01*
X006604Y001321D02*
X006543Y001383D01*
X006543Y001630D01*
X006604Y001568D02*
X006481Y001568D01*
X006297Y001568D02*
X006297Y001321D01*
X006235Y001321D02*
X006359Y001321D01*
X006114Y001321D02*
X005929Y001445D01*
X006114Y001568D01*
X006235Y001568D02*
X006297Y001568D01*
X006297Y001692D02*
X006297Y001753D01*
X005929Y001692D02*
X005929Y001321D01*
X005807Y001383D02*
X005745Y001321D01*
X005622Y001321D01*
X005560Y001383D01*
X005560Y001630D01*
X005622Y001692D01*
X005745Y001692D01*
X005807Y001630D01*
X005438Y001692D02*
X005315Y001692D01*
X005376Y001692D02*
X005376Y001321D01*
X005315Y001321D02*
X005438Y001321D01*
X005193Y001507D02*
X005193Y001630D01*
X005132Y001692D01*
X004946Y001692D01*
X004946Y001321D01*
X004946Y001445D02*
X005132Y001445D01*
X005193Y001507D01*
X006726Y001630D02*
X006788Y001692D01*
X006912Y001692D01*
X006973Y001630D01*
X006912Y001507D02*
X006850Y001507D01*
X006355Y005071D02*
X006293Y005071D01*
X006231Y005133D01*
X006231Y005257D01*
X006293Y005318D01*
X006355Y005318D01*
X006416Y005257D01*
X006416Y005133D01*
X006355Y005071D01*
X006231Y005133D02*
X006170Y005071D01*
X006108Y005071D01*
X006046Y005133D01*
X006046Y005257D01*
X006108Y005318D01*
X006170Y005318D01*
X006231Y005257D01*
X006046Y005440D02*
X006170Y005563D01*
X006046Y005687D01*
X006416Y005687D01*
X006416Y005808D02*
X006046Y005808D01*
X006231Y005808D02*
X006231Y006055D01*
X006170Y006176D02*
X006170Y006423D01*
X006416Y006176D01*
X006416Y006423D01*
X006416Y006055D02*
X006046Y006055D01*
X006046Y005440D02*
X006416Y005440D01*
D12*
X004781Y002887D02*
X004540Y002887D01*
X004540Y002526D01*
X004412Y002526D02*
X004412Y002767D01*
X004540Y002707D02*
X004661Y002707D01*
X004412Y002526D02*
X004232Y002526D01*
X004172Y002586D01*
X004172Y002767D01*
X004044Y002526D02*
X003804Y002526D01*
X003924Y002526D02*
X003924Y002887D01*
X003804Y002767D01*
X003680Y002586D02*
X003620Y002586D01*
X003620Y002526D01*
X003680Y002526D01*
X003680Y002586D01*
X003492Y002586D02*
X003492Y002827D01*
X003251Y002586D01*
X003311Y002526D01*
X003432Y002526D01*
X003492Y002586D01*
X003251Y002586D02*
X003251Y002827D01*
X003311Y002887D01*
X003432Y002887D01*
X003492Y002827D01*
X009951Y002870D02*
X009951Y002716D01*
X010028Y002639D01*
X010028Y002486D02*
X010105Y002486D01*
X010181Y002409D01*
X010258Y002486D01*
X010335Y002486D01*
X010411Y002409D01*
X010411Y002256D01*
X010335Y002179D01*
X010335Y002026D02*
X010411Y001949D01*
X010411Y001795D01*
X010335Y001719D01*
X010028Y001719D01*
X009951Y001795D01*
X009951Y001949D01*
X010028Y002026D01*
X010028Y002179D02*
X009951Y002256D01*
X009951Y002409D01*
X010028Y002486D01*
X010181Y002409D02*
X010181Y002332D01*
X010411Y002639D02*
X010105Y002946D01*
X010028Y002946D01*
X009951Y002870D01*
X009951Y003100D02*
X010105Y003253D01*
X009951Y003407D01*
X010411Y003407D01*
X010411Y003560D02*
X009951Y003867D01*
X010028Y004020D02*
X009951Y004097D01*
X009951Y004251D01*
X010028Y004327D01*
X010105Y004327D01*
X010411Y004020D01*
X010411Y004327D01*
X010335Y004481D02*
X010411Y004557D01*
X010411Y004711D01*
X010335Y004788D01*
X010181Y004788D01*
X010105Y004711D01*
X010105Y004634D01*
X010181Y004481D01*
X009951Y004481D01*
X009951Y004788D01*
X010028Y004941D02*
X009951Y005018D01*
X009951Y005171D01*
X010028Y005248D01*
X010335Y004941D01*
X010411Y005018D01*
X010411Y005171D01*
X010335Y005248D01*
X010028Y005248D01*
X009951Y005401D02*
X009951Y005708D01*
X010105Y005862D02*
X009951Y006015D01*
X010411Y006015D01*
X010411Y005862D02*
X010411Y006169D01*
X010411Y006322D02*
X010105Y006629D01*
X010028Y006629D01*
X009951Y006552D01*
X009951Y006399D01*
X010028Y006322D01*
X010411Y006322D02*
X010411Y006629D01*
X010335Y006783D02*
X010258Y006783D01*
X010181Y006859D01*
X010181Y007013D01*
X010258Y007089D01*
X010335Y007089D01*
X010411Y007013D01*
X010411Y006859D01*
X010335Y006783D01*
X010181Y006859D02*
X010105Y006783D01*
X010028Y006783D01*
X009951Y006859D01*
X009951Y007013D01*
X010028Y007089D01*
X010105Y007089D01*
X010181Y007013D01*
X010181Y007243D02*
X010181Y007473D01*
X010258Y007550D01*
X010335Y007550D01*
X010411Y007473D01*
X010411Y007243D01*
X009951Y007243D01*
X009951Y007473D01*
X010028Y007550D01*
X010105Y007550D01*
X010181Y007473D01*
X009951Y007703D02*
X009951Y007933D01*
X010028Y008010D01*
X010335Y008010D01*
X010411Y007933D01*
X010411Y007703D01*
X009951Y007703D01*
X009951Y008164D02*
X009951Y008317D01*
X009951Y008240D02*
X010411Y008240D01*
X010411Y008164D02*
X010411Y008317D01*
X010411Y008471D02*
X009951Y008471D01*
X009951Y008701D01*
X010028Y008777D01*
X010181Y008777D01*
X010258Y008701D01*
X010258Y008471D01*
X010181Y005555D02*
X010181Y005401D01*
X010411Y005401D02*
X009951Y005401D01*
X010028Y004941D02*
X010335Y004941D01*
X010411Y003867D02*
X009951Y003560D01*
X009951Y003100D02*
X010411Y003100D01*
X010411Y002946D02*
X010411Y002639D01*
X010411Y001565D02*
X010411Y001412D01*
X010411Y001488D02*
X009951Y001488D01*
X009951Y001412D02*
X009951Y001565D01*
X010028Y001258D02*
X010181Y001258D01*
X010258Y001182D01*
X010258Y000951D01*
X010411Y000951D02*
X009951Y000951D01*
X009951Y001182D01*
X010028Y001258D01*
X012701Y000960D02*
X012701Y000653D01*
X012778Y000576D01*
X012932Y000576D01*
X013008Y000653D01*
X013008Y000807D01*
X012855Y000807D01*
X013008Y000960D02*
X012932Y001037D01*
X012778Y001037D01*
X012701Y000960D01*
X013162Y000883D02*
X013238Y000883D01*
X013238Y000576D01*
X013162Y000576D02*
X013315Y000576D01*
X013469Y000653D02*
X013545Y000576D01*
X013699Y000576D01*
X013776Y000653D01*
X013776Y000807D01*
X013699Y000883D01*
X013545Y000883D01*
X013469Y000807D01*
X013469Y000653D01*
X013238Y001037D02*
X013238Y001114D01*
X013929Y000883D02*
X013929Y000576D01*
X013929Y000730D02*
X014082Y000883D01*
X014159Y000883D01*
X014313Y000807D02*
X014313Y000653D01*
X014389Y000576D01*
X014620Y000576D01*
X014620Y000500D02*
X014620Y000883D01*
X014389Y000883D01*
X014313Y000807D01*
X014466Y000423D02*
X014543Y000423D01*
X014620Y000500D01*
X014773Y000653D02*
X014850Y000576D01*
X015003Y000576D01*
X015080Y000653D01*
X015080Y000807D01*
X015003Y000883D01*
X014850Y000883D01*
X014773Y000807D01*
X014773Y000653D01*
X015233Y000576D02*
X015464Y000576D01*
X015540Y000653D01*
X015464Y000730D01*
X015310Y000730D01*
X015233Y000807D01*
X015310Y000883D01*
X015540Y000883D01*
X015791Y002496D02*
X015731Y002557D01*
X015731Y002677D01*
X015791Y002737D01*
X015851Y002737D01*
X015911Y002677D01*
X015971Y002737D01*
X016031Y002737D01*
X016091Y002677D01*
X016091Y002557D01*
X016031Y002496D01*
X015911Y002617D02*
X015911Y002677D01*
X015791Y002865D02*
X015731Y002925D01*
X015731Y003045D01*
X015791Y003105D01*
X015851Y003105D01*
X015911Y003045D01*
X015971Y003105D01*
X016031Y003105D01*
X016091Y003045D01*
X016091Y002925D01*
X016031Y002865D01*
X015911Y002985D02*
X015911Y003045D01*
X016031Y003233D02*
X015791Y003233D01*
X015731Y003293D01*
X015731Y003413D01*
X015791Y003473D01*
X016031Y003233D01*
X016091Y003293D01*
X016091Y003413D01*
X016031Y003473D01*
X015791Y003473D01*
X014156Y011246D02*
X014216Y011307D01*
X014216Y011427D01*
X014156Y011487D01*
X014096Y011487D01*
X014036Y011427D01*
X014036Y011367D01*
X014036Y011427D02*
X013976Y011487D01*
X013916Y011487D01*
X013856Y011427D01*
X013856Y011307D01*
X013916Y011246D01*
X013916Y011615D02*
X013856Y011675D01*
X013856Y011795D01*
X013916Y011855D01*
X013976Y011855D01*
X014036Y011795D01*
X014096Y011855D01*
X014156Y011855D01*
X014216Y011795D01*
X014216Y011675D01*
X014156Y011615D01*
X014036Y011735D02*
X014036Y011795D01*
X013916Y011983D02*
X013856Y012043D01*
X013856Y012163D01*
X013916Y012223D01*
X014156Y011983D01*
X014216Y012043D01*
X014216Y012163D01*
X014156Y012223D01*
X013916Y012223D01*
X013916Y011983D02*
X014156Y011983D01*
X013151Y013001D02*
X012911Y013242D01*
X013151Y013242D01*
X013211Y013182D01*
X013211Y013061D01*
X013151Y013001D01*
X012911Y013001D01*
X012851Y013061D01*
X012851Y013182D01*
X012911Y013242D01*
X013151Y013370D02*
X013151Y013430D01*
X013211Y013430D01*
X013211Y013370D01*
X013151Y013370D01*
X013211Y013554D02*
X013211Y013794D01*
X013211Y013674D02*
X012851Y013674D01*
X012971Y013554D01*
X012971Y013922D02*
X013151Y013922D01*
X013211Y013982D01*
X013211Y014162D01*
X012971Y014162D01*
X013031Y014290D02*
X013031Y014411D01*
X012851Y014290D02*
X012851Y014531D01*
X012851Y014290D02*
X013211Y014290D01*
X011136Y015304D02*
X011076Y015244D01*
X010836Y015484D01*
X011076Y015484D01*
X011136Y015424D01*
X011136Y015304D01*
X011076Y015244D02*
X010836Y015244D01*
X010776Y015304D01*
X010776Y015424D01*
X010836Y015484D01*
X010896Y015796D02*
X010776Y015917D01*
X011136Y015917D01*
X011136Y016037D02*
X011136Y015796D01*
X011136Y015672D02*
X011136Y015612D01*
X011076Y015612D01*
X011076Y015672D01*
X011136Y015672D01*
X011076Y016165D02*
X010896Y016165D01*
X011076Y016165D02*
X011136Y016225D01*
X011136Y016405D01*
X010896Y016405D01*
X010956Y016533D02*
X010956Y016653D01*
X010776Y016533D02*
X010776Y016773D01*
X010776Y016533D02*
X011136Y016533D01*
X009511Y018179D02*
X009451Y018119D01*
X009211Y018359D01*
X009451Y018359D01*
X009511Y018299D01*
X009511Y018179D01*
X009451Y018119D02*
X009211Y018119D01*
X009151Y018179D01*
X009151Y018299D01*
X009211Y018359D01*
X009451Y018487D02*
X009451Y018547D01*
X009511Y018547D01*
X009511Y018487D01*
X009451Y018487D01*
X009511Y018671D02*
X009511Y018912D01*
X009511Y018792D02*
X009151Y018792D01*
X009271Y018671D01*
X009271Y019040D02*
X009451Y019040D01*
X009511Y019100D01*
X009511Y019280D01*
X009271Y019280D01*
X009331Y019408D02*
X009331Y019528D01*
X009151Y019408D02*
X009151Y019648D01*
X009151Y019408D02*
X009511Y019408D01*
X013356Y017294D02*
X013716Y017294D01*
X013596Y017294D02*
X013716Y017475D01*
X013596Y017294D02*
X013476Y017475D01*
X013416Y017166D02*
X013656Y016926D01*
X013716Y016986D01*
X013716Y017106D01*
X013656Y017166D01*
X013416Y017166D01*
X013356Y017106D01*
X013356Y016986D01*
X013416Y016926D01*
X013656Y016926D01*
X013716Y016798D02*
X013716Y016558D01*
X013716Y016678D02*
X013356Y016678D01*
X013476Y016558D01*
X016576Y013337D02*
X016576Y012976D01*
X016817Y012976D01*
X016945Y012976D02*
X017185Y012976D01*
X017313Y012976D02*
X017493Y012976D01*
X017553Y013036D01*
X017553Y013277D01*
X017493Y013337D01*
X017313Y013337D01*
X017313Y012976D01*
X017681Y013036D02*
X017741Y012976D01*
X017861Y012976D01*
X017922Y013036D01*
X017922Y013096D01*
X017861Y013157D01*
X017801Y013157D01*
X017861Y013157D02*
X017922Y013217D01*
X017922Y013277D01*
X017861Y013337D01*
X017741Y013337D01*
X017681Y013277D01*
X017185Y013337D02*
X016945Y013337D01*
X016945Y012976D01*
X016945Y013157D02*
X017065Y013157D01*
X017058Y014271D02*
X017298Y014271D01*
X017178Y014271D02*
X017178Y014632D01*
X017058Y014512D01*
X017426Y014572D02*
X017426Y014331D01*
X017666Y014572D01*
X017666Y014331D01*
X017606Y014271D01*
X017486Y014271D01*
X017426Y014331D01*
X017426Y014572D02*
X017486Y014632D01*
X017606Y014632D01*
X017666Y014572D01*
X017794Y014632D02*
X017794Y014271D01*
X017794Y014391D02*
X017975Y014512D01*
X017794Y014391D02*
X017975Y014271D01*
X017763Y011762D02*
X017643Y011762D01*
X017583Y011702D01*
X017455Y011702D02*
X017455Y011461D01*
X017395Y011401D01*
X017215Y011401D01*
X017215Y011762D01*
X017395Y011762D01*
X017455Y011702D01*
X017583Y011401D02*
X017823Y011642D01*
X017823Y011702D01*
X017763Y011762D01*
X017823Y011401D02*
X017583Y011401D01*
X017087Y011401D02*
X016846Y011401D01*
X016846Y011762D01*
X017087Y011762D01*
X016967Y011582D02*
X016846Y011582D01*
X016718Y011401D02*
X016478Y011401D01*
X016478Y011762D01*
X003341Y011663D02*
X003341Y011543D01*
X003281Y011483D01*
X003041Y011723D01*
X003281Y011723D01*
X003341Y011663D01*
X003281Y011483D02*
X003041Y011483D01*
X002981Y011543D01*
X002981Y011663D01*
X003041Y011723D01*
X003041Y011355D02*
X002981Y011295D01*
X002981Y011175D01*
X003041Y011115D01*
X003041Y010987D02*
X003101Y010987D01*
X003161Y010927D01*
X003221Y010987D01*
X003281Y010987D01*
X003341Y010927D01*
X003341Y010807D01*
X003281Y010746D01*
X003161Y010867D02*
X003161Y010927D01*
X003041Y010987D02*
X002981Y010927D01*
X002981Y010807D01*
X003041Y010746D01*
X003281Y011115D02*
X003341Y011175D01*
X003341Y011295D01*
X003281Y011355D01*
X003221Y011355D01*
X003161Y011295D01*
X003161Y011235D01*
X003161Y011295D02*
X003101Y011355D01*
X003041Y011355D01*
D13*
X015681Y018431D02*
X017681Y018431D01*
X017725Y018433D01*
X017768Y018439D01*
X017810Y018448D01*
X017852Y018461D01*
X017892Y018478D01*
X017931Y018498D01*
X017968Y018521D01*
X018002Y018548D01*
X018035Y018577D01*
X018064Y018610D01*
X018091Y018644D01*
X018114Y018681D01*
X018134Y018720D01*
X018151Y018760D01*
X018164Y018802D01*
X018173Y018844D01*
X018179Y018887D01*
X018181Y018931D01*
X018181Y019056D01*
X018431Y018806D02*
X018431Y016681D01*
X018433Y016637D01*
X018439Y016594D01*
X018448Y016552D01*
X018461Y016510D01*
X018478Y016470D01*
X018498Y016431D01*
X018521Y016394D01*
X018548Y016360D01*
X018577Y016327D01*
X018610Y016298D01*
X018644Y016271D01*
X018681Y016248D01*
X018720Y016228D01*
X018760Y016211D01*
X018802Y016198D01*
X018844Y016189D01*
X018887Y016183D01*
X018931Y016181D01*
X019056Y016181D01*
X018931Y016181D02*
X018975Y016183D01*
X019018Y016189D01*
X019060Y016198D01*
X019102Y016211D01*
X019142Y016228D01*
X019181Y016248D01*
X019218Y016271D01*
X019252Y016298D01*
X019285Y016327D01*
X019314Y016360D01*
X019341Y016394D01*
X019364Y016431D01*
X019384Y016470D01*
X019401Y016510D01*
X019414Y016552D01*
X019423Y016594D01*
X019429Y016637D01*
X019431Y016681D01*
X019431Y018681D01*
X019429Y018725D01*
X019423Y018768D01*
X019414Y018810D01*
X019401Y018852D01*
X019384Y018892D01*
X019364Y018931D01*
X019341Y018968D01*
X019314Y019002D01*
X019285Y019035D01*
X019252Y019064D01*
X019218Y019091D01*
X019181Y019114D01*
X019142Y019134D01*
X019102Y019151D01*
X019060Y019164D01*
X019018Y019173D01*
X018975Y019179D01*
X018931Y019181D01*
X018806Y019181D01*
X018769Y019179D01*
X018733Y019174D01*
X018697Y019165D01*
X018662Y019152D01*
X018629Y019137D01*
X018598Y019118D01*
X018568Y019096D01*
X018541Y019071D01*
X018516Y019044D01*
X018494Y019014D01*
X018475Y018983D01*
X018460Y018950D01*
X018447Y018915D01*
X018438Y018879D01*
X018433Y018843D01*
X018431Y018806D01*
X018181Y019056D02*
X018179Y019093D01*
X018174Y019129D01*
X018165Y019165D01*
X018152Y019200D01*
X018137Y019233D01*
X018118Y019264D01*
X018096Y019294D01*
X018071Y019321D01*
X018044Y019346D01*
X018014Y019368D01*
X017983Y019387D01*
X017950Y019402D01*
X017915Y019415D01*
X017879Y019424D01*
X017843Y019429D01*
X017806Y019431D01*
X015681Y019431D01*
X015637Y019429D01*
X015594Y019423D01*
X015552Y019414D01*
X015510Y019401D01*
X015470Y019384D01*
X015431Y019364D01*
X015394Y019341D01*
X015360Y019314D01*
X015327Y019285D01*
X015298Y019252D01*
X015271Y019218D01*
X015248Y019181D01*
X015228Y019142D01*
X015211Y019102D01*
X015198Y019060D01*
X015189Y019018D01*
X015183Y018975D01*
X015181Y018931D01*
X015183Y018887D01*
X015189Y018844D01*
X015198Y018802D01*
X015211Y018760D01*
X015228Y018720D01*
X015248Y018681D01*
X015271Y018644D01*
X015298Y018610D01*
X015327Y018577D01*
X015360Y018548D01*
X015394Y018521D01*
X015431Y018498D01*
X015470Y018478D01*
X015510Y018461D01*
X015552Y018448D01*
X015594Y018439D01*
X015637Y018433D01*
X015681Y018431D01*
D14*
X014631Y018331D02*
X014631Y018181D01*
X014581Y018131D01*
X014581Y016231D01*
X014631Y016181D01*
X014631Y016031D01*
X014629Y016014D01*
X014625Y015997D01*
X014618Y015981D01*
X014608Y015967D01*
X014595Y015954D01*
X014581Y015944D01*
X014565Y015937D01*
X014548Y015933D01*
X014531Y015931D01*
X013831Y015931D02*
X013814Y015933D01*
X013797Y015937D01*
X013781Y015944D01*
X013767Y015954D01*
X013754Y015967D01*
X013744Y015981D01*
X013737Y015997D01*
X013733Y016014D01*
X013731Y016031D01*
X013731Y016181D01*
X013781Y016231D01*
X013781Y018131D01*
X013731Y018181D01*
X013731Y018331D01*
X013733Y018348D01*
X013737Y018365D01*
X013744Y018381D01*
X013754Y018395D01*
X013767Y018408D01*
X013781Y018418D01*
X013797Y018425D01*
X013814Y018429D01*
X013831Y018431D01*
X014531Y018431D02*
X014548Y018429D01*
X014565Y018425D01*
X014581Y018418D01*
X014595Y018408D01*
X014608Y018395D01*
X014618Y018381D01*
X014625Y018365D01*
X014629Y018348D01*
X014631Y018331D01*
X016531Y015631D02*
X016681Y015631D01*
X016731Y015581D01*
X018631Y015581D01*
X018681Y015631D01*
X018831Y015631D01*
X018848Y015629D01*
X018865Y015625D01*
X018881Y015618D01*
X018895Y015608D01*
X018908Y015595D01*
X018918Y015581D01*
X018925Y015565D01*
X018929Y015548D01*
X018931Y015531D01*
X018931Y014831D02*
X018929Y014814D01*
X018925Y014797D01*
X018918Y014781D01*
X018908Y014767D01*
X018895Y014754D01*
X018881Y014744D01*
X018865Y014737D01*
X018848Y014733D01*
X018831Y014731D01*
X018681Y014731D01*
X018631Y014781D01*
X016731Y014781D01*
X016681Y014731D01*
X016531Y014731D01*
X016514Y014733D01*
X016497Y014737D01*
X016481Y014744D01*
X016467Y014754D01*
X016454Y014767D01*
X016444Y014781D01*
X016437Y014797D01*
X016433Y014814D01*
X016431Y014831D01*
X016431Y015531D02*
X016433Y015548D01*
X016437Y015565D01*
X016444Y015581D01*
X016454Y015595D01*
X016467Y015608D01*
X016481Y015618D01*
X016497Y015625D01*
X016514Y015629D01*
X016531Y015631D01*
X014131Y014331D02*
X014131Y013031D01*
X014129Y013005D01*
X014124Y012979D01*
X014116Y012954D01*
X014104Y012931D01*
X014090Y012909D01*
X014072Y012890D01*
X014053Y012872D01*
X014031Y012858D01*
X014008Y012846D01*
X013983Y012838D01*
X013957Y012833D01*
X013931Y012831D01*
X013431Y012831D01*
X013405Y012833D01*
X013379Y012838D01*
X013354Y012846D01*
X013331Y012858D01*
X013309Y012872D01*
X013290Y012890D01*
X013272Y012909D01*
X013258Y012931D01*
X013246Y012954D01*
X013238Y012979D01*
X013233Y013005D01*
X013231Y013031D01*
X013231Y014331D01*
X013233Y014357D01*
X013238Y014383D01*
X013246Y014408D01*
X013258Y014431D01*
X013272Y014453D01*
X013290Y014472D01*
X013309Y014490D01*
X013331Y014504D01*
X013354Y014516D01*
X013379Y014524D01*
X013405Y014529D01*
X013431Y014531D01*
X013931Y014531D01*
X013957Y014529D01*
X013983Y014524D01*
X014008Y014516D01*
X014031Y014504D01*
X014053Y014490D01*
X014072Y014472D01*
X014090Y014453D01*
X014104Y014431D01*
X014116Y014408D01*
X014124Y014383D01*
X014129Y014357D01*
X014131Y014331D01*
X014356Y013081D02*
X014356Y012931D01*
X014406Y012881D01*
X014406Y010981D01*
X014356Y010931D01*
X014356Y010781D01*
X014358Y010764D01*
X014362Y010747D01*
X014369Y010731D01*
X014379Y010717D01*
X014392Y010704D01*
X014406Y010694D01*
X014422Y010687D01*
X014439Y010683D01*
X014456Y010681D01*
X015156Y010681D02*
X015173Y010683D01*
X015190Y010687D01*
X015206Y010694D01*
X015220Y010704D01*
X015233Y010717D01*
X015243Y010731D01*
X015250Y010747D01*
X015254Y010764D01*
X015256Y010781D01*
X015256Y010931D01*
X015206Y010981D01*
X015206Y012881D01*
X015256Y012931D01*
X015256Y013081D01*
X015254Y013098D01*
X015250Y013115D01*
X015243Y013131D01*
X015233Y013145D01*
X015220Y013158D01*
X015206Y013168D01*
X015190Y013175D01*
X015173Y013179D01*
X015156Y013181D01*
X014456Y013181D02*
X014439Y013179D01*
X014422Y013175D01*
X014406Y013168D01*
X014392Y013158D01*
X014379Y013145D01*
X014369Y013131D01*
X014362Y013115D01*
X014358Y013098D01*
X014356Y013081D01*
X011331Y014681D02*
X010581Y014681D01*
X010579Y014642D01*
X010573Y014603D01*
X010564Y014565D01*
X010551Y014528D01*
X010534Y014492D01*
X010514Y014459D01*
X010490Y014427D01*
X010464Y014398D01*
X010435Y014372D01*
X010403Y014348D01*
X010370Y014328D01*
X010334Y014311D01*
X010297Y014298D01*
X010259Y014289D01*
X010220Y014283D01*
X010181Y014281D01*
X010142Y014283D01*
X010103Y014289D01*
X010065Y014298D01*
X010028Y014311D01*
X009992Y014328D01*
X009959Y014348D01*
X009927Y014372D01*
X009898Y014398D01*
X009872Y014427D01*
X009848Y014459D01*
X009828Y014492D01*
X009811Y014528D01*
X009798Y014565D01*
X009789Y014603D01*
X009783Y014642D01*
X009781Y014681D01*
X009031Y014681D01*
X009031Y000681D01*
X011331Y000681D01*
X011331Y014681D01*
X010631Y015531D02*
X010631Y016831D01*
X010629Y016857D01*
X010624Y016883D01*
X010616Y016908D01*
X010604Y016931D01*
X010590Y016953D01*
X010572Y016972D01*
X010553Y016990D01*
X010531Y017004D01*
X010508Y017016D01*
X010483Y017024D01*
X010457Y017029D01*
X010431Y017031D01*
X009931Y017031D01*
X009905Y017029D01*
X009879Y017024D01*
X009854Y017016D01*
X009831Y017004D01*
X009809Y016990D01*
X009790Y016972D01*
X009772Y016953D01*
X009758Y016931D01*
X009746Y016908D01*
X009738Y016883D01*
X009733Y016857D01*
X009731Y016831D01*
X009731Y015531D01*
X009733Y015505D01*
X009738Y015479D01*
X009746Y015454D01*
X009758Y015431D01*
X009772Y015409D01*
X009790Y015390D01*
X009809Y015372D01*
X009831Y015358D01*
X009854Y015346D01*
X009879Y015338D01*
X009905Y015333D01*
X009931Y015331D01*
X010431Y015331D01*
X010457Y015333D01*
X010483Y015338D01*
X010508Y015346D01*
X010531Y015358D01*
X010553Y015372D01*
X010572Y015390D01*
X010590Y015409D01*
X010604Y015431D01*
X010616Y015454D01*
X010624Y015479D01*
X010629Y015505D01*
X010631Y015531D01*
X008831Y018731D02*
X007531Y018731D01*
X007505Y018733D01*
X007479Y018738D01*
X007454Y018746D01*
X007431Y018758D01*
X007409Y018772D01*
X007390Y018790D01*
X007372Y018809D01*
X007358Y018831D01*
X007346Y018854D01*
X007338Y018879D01*
X007333Y018905D01*
X007331Y018931D01*
X007331Y019431D01*
X007333Y019457D01*
X007338Y019483D01*
X007346Y019508D01*
X007358Y019531D01*
X007372Y019553D01*
X007390Y019572D01*
X007409Y019590D01*
X007431Y019604D01*
X007454Y019616D01*
X007479Y019624D01*
X007505Y019629D01*
X007531Y019631D01*
X008831Y019631D01*
X008857Y019629D01*
X008883Y019624D01*
X008908Y019616D01*
X008931Y019604D01*
X008953Y019590D01*
X008972Y019572D01*
X008990Y019553D01*
X009004Y019531D01*
X009016Y019508D01*
X009024Y019483D01*
X009029Y019457D01*
X009031Y019431D01*
X009031Y018931D01*
X009029Y018905D01*
X009024Y018879D01*
X009016Y018854D01*
X009004Y018831D01*
X008990Y018809D01*
X008972Y018790D01*
X008953Y018772D01*
X008931Y018758D01*
X008908Y018746D01*
X008883Y018738D01*
X008857Y018733D01*
X008831Y018731D01*
X006881Y019581D02*
X006881Y015781D01*
X006781Y015681D01*
X005631Y015681D01*
X002881Y012456D02*
X002881Y012306D01*
X002831Y012256D01*
X002831Y010356D01*
X002881Y010306D01*
X002881Y010156D01*
X002879Y010139D01*
X002875Y010122D01*
X002868Y010106D01*
X002858Y010092D01*
X002845Y010079D01*
X002831Y010069D01*
X002815Y010062D01*
X002798Y010058D01*
X002781Y010056D01*
X002081Y010056D02*
X002064Y010058D01*
X002047Y010062D01*
X002031Y010069D01*
X002017Y010079D01*
X002004Y010092D01*
X001994Y010106D01*
X001987Y010122D01*
X001983Y010139D01*
X001981Y010156D01*
X001981Y010306D01*
X002031Y010356D01*
X002031Y012256D01*
X001981Y012306D01*
X001981Y012456D01*
X001983Y012473D01*
X001987Y012490D01*
X001994Y012506D01*
X002004Y012520D01*
X002017Y012533D01*
X002031Y012543D01*
X002047Y012550D01*
X002064Y012554D01*
X002081Y012556D01*
X002781Y012556D02*
X002798Y012554D01*
X002815Y012550D01*
X002831Y012543D01*
X002845Y012533D01*
X002858Y012520D01*
X002868Y012506D01*
X002875Y012490D01*
X002879Y012473D01*
X002881Y012456D01*
X006881Y019581D02*
X006781Y019681D01*
X005631Y019681D01*
X011049Y018457D02*
X011084Y018487D01*
X011117Y018518D01*
X011147Y018553D01*
X011174Y018589D01*
X011198Y018627D01*
X011220Y018667D01*
X011238Y018709D01*
X011254Y018752D01*
X011266Y018796D01*
X011274Y018840D01*
X011279Y018886D01*
X011281Y018931D01*
X011279Y018976D01*
X011274Y019022D01*
X011266Y019066D01*
X011254Y019110D01*
X011238Y019153D01*
X011220Y019195D01*
X011198Y019235D01*
X011174Y019273D01*
X011147Y019309D01*
X011117Y019344D01*
X011084Y019375D01*
X011049Y019405D01*
X010081Y018931D02*
X010083Y018885D01*
X010088Y018839D01*
X010097Y018793D01*
X010109Y018748D01*
X010125Y018705D01*
X010144Y018663D01*
X010167Y018622D01*
X010192Y018583D01*
X010220Y018547D01*
X010251Y018512D01*
X010285Y018480D01*
X010321Y018451D01*
X010081Y018931D02*
X010083Y018978D01*
X010089Y019026D01*
X010098Y019072D01*
X010111Y019118D01*
X010127Y019162D01*
X010147Y019206D01*
X010171Y019247D01*
X010197Y019286D01*
X010227Y019323D01*
X010260Y019358D01*
X010295Y019390D01*
X010332Y019419D01*
X018563Y013655D02*
X018528Y013625D01*
X018495Y013594D01*
X018465Y013559D01*
X018438Y013523D01*
X018414Y013485D01*
X018392Y013445D01*
X018374Y013403D01*
X018358Y013360D01*
X018346Y013316D01*
X018338Y013272D01*
X018333Y013226D01*
X018331Y013181D01*
X018333Y013136D01*
X018338Y013090D01*
X018346Y013046D01*
X018358Y013002D01*
X018374Y012959D01*
X018392Y012917D01*
X018414Y012877D01*
X018438Y012839D01*
X018465Y012803D01*
X018495Y012768D01*
X018528Y012737D01*
X018563Y012707D01*
X019531Y013181D02*
X019529Y013227D01*
X019524Y013273D01*
X019515Y013319D01*
X019503Y013364D01*
X019487Y013407D01*
X019468Y013449D01*
X019445Y013490D01*
X019420Y013529D01*
X019392Y013565D01*
X019361Y013600D01*
X019327Y013632D01*
X019291Y013661D01*
X019531Y013181D02*
X019529Y013134D01*
X019523Y013086D01*
X019514Y013040D01*
X019501Y012994D01*
X019485Y012950D01*
X019465Y012906D01*
X019441Y012865D01*
X019415Y012826D01*
X019385Y012789D01*
X019352Y012754D01*
X019317Y012722D01*
X019280Y012693D01*
X019531Y011431D02*
X019529Y011386D01*
X019524Y011340D01*
X019516Y011296D01*
X019504Y011252D01*
X019488Y011209D01*
X019470Y011167D01*
X019448Y011127D01*
X019424Y011089D01*
X019397Y011053D01*
X019367Y011018D01*
X019334Y010987D01*
X019299Y010957D01*
X019531Y011431D02*
X019529Y011476D01*
X019524Y011522D01*
X019516Y011566D01*
X019504Y011610D01*
X019488Y011653D01*
X019470Y011695D01*
X019448Y011735D01*
X019424Y011773D01*
X019397Y011809D01*
X019367Y011844D01*
X019334Y011875D01*
X019299Y011905D01*
X018331Y011431D02*
X018333Y011385D01*
X018338Y011339D01*
X018347Y011293D01*
X018359Y011248D01*
X018375Y011205D01*
X018394Y011163D01*
X018417Y011122D01*
X018442Y011083D01*
X018470Y011047D01*
X018501Y011012D01*
X018535Y010980D01*
X018571Y010951D01*
X018331Y011431D02*
X018333Y011478D01*
X018339Y011526D01*
X018348Y011572D01*
X018361Y011618D01*
X018377Y011662D01*
X018397Y011706D01*
X018421Y011747D01*
X018447Y011786D01*
X018477Y011823D01*
X018510Y011858D01*
X018545Y011890D01*
X018582Y011919D01*
X017131Y004331D02*
X017131Y004181D01*
X017081Y004131D01*
X017081Y002231D01*
X017131Y002181D01*
X017131Y002031D01*
X017129Y002014D01*
X017125Y001997D01*
X017118Y001981D01*
X017108Y001967D01*
X017095Y001954D01*
X017081Y001944D01*
X017065Y001937D01*
X017048Y001933D01*
X017031Y001931D01*
X016331Y001931D02*
X016314Y001933D01*
X016297Y001937D01*
X016281Y001944D01*
X016267Y001954D01*
X016254Y001967D01*
X016244Y001981D01*
X016237Y001997D01*
X016233Y002014D01*
X016231Y002031D01*
X016231Y002181D01*
X016281Y002231D01*
X016281Y004131D01*
X016231Y004181D01*
X016231Y004331D01*
X016233Y004348D01*
X016237Y004365D01*
X016244Y004381D01*
X016254Y004395D01*
X016267Y004408D01*
X016281Y004418D01*
X016297Y004425D01*
X016314Y004429D01*
X016331Y004431D01*
X017031Y004431D02*
X017048Y004429D01*
X017065Y004425D01*
X017081Y004418D01*
X017095Y004408D01*
X017108Y004395D01*
X017118Y004381D01*
X017125Y004365D01*
X017129Y004348D01*
X017131Y004331D01*
X004781Y002181D02*
X004781Y001681D01*
X004779Y001655D01*
X004774Y001629D01*
X004766Y001604D01*
X004754Y001581D01*
X004740Y001559D01*
X004722Y001540D01*
X004703Y001522D01*
X004681Y001508D01*
X004658Y001496D01*
X004633Y001488D01*
X004607Y001483D01*
X004581Y001481D01*
X003281Y001481D01*
X003255Y001483D01*
X003229Y001488D01*
X003204Y001496D01*
X003181Y001508D01*
X003159Y001522D01*
X003140Y001540D01*
X003122Y001559D01*
X003108Y001581D01*
X003096Y001604D01*
X003088Y001629D01*
X003083Y001655D01*
X003081Y001681D01*
X003081Y002181D01*
X003083Y002207D01*
X003088Y002233D01*
X003096Y002258D01*
X003108Y002281D01*
X003122Y002303D01*
X003140Y002322D01*
X003159Y002340D01*
X003181Y002354D01*
X003204Y002366D01*
X003229Y002374D01*
X003255Y002379D01*
X003281Y002381D01*
X004581Y002381D01*
X004607Y002379D01*
X004633Y002374D01*
X004658Y002366D01*
X004681Y002354D01*
X004703Y002340D01*
X004722Y002322D01*
X004740Y002303D01*
X004754Y002281D01*
X004766Y002258D01*
X004774Y002233D01*
X004779Y002207D01*
X004781Y002181D01*
D15*
X004931Y001181D02*
X004431Y001181D01*
X004181Y000931D01*
X003931Y001181D01*
X003431Y001181D01*
X003181Y000931D01*
X002931Y001181D01*
X002431Y001181D01*
X002181Y000931D01*
X002181Y000431D01*
X002431Y000181D01*
X002931Y000181D01*
X003181Y000431D01*
X003431Y000181D01*
X003931Y000181D01*
X004181Y000431D01*
X004431Y000181D01*
X004931Y000181D01*
X005181Y000431D01*
X005431Y000181D01*
X005931Y000181D01*
X006181Y000431D01*
X006431Y000181D01*
X006931Y000181D01*
X007181Y000431D01*
X007181Y000931D01*
X006931Y001181D01*
X006431Y001181D01*
X006181Y000931D01*
X005931Y001181D01*
X005431Y001181D01*
X005181Y000931D01*
X004931Y001181D01*
X006931Y004181D02*
X007431Y004181D01*
X007681Y004431D01*
X007681Y004931D01*
X007431Y005181D01*
X007681Y005431D01*
X007681Y005931D01*
X007431Y006181D01*
X007681Y006431D01*
X007681Y006931D01*
X007431Y007181D01*
X006931Y007181D01*
X006681Y006931D01*
X006681Y006431D01*
X006931Y006181D01*
X006681Y005931D01*
X006681Y005431D01*
X006931Y005181D01*
X006681Y004931D01*
X006681Y004431D01*
X006931Y004181D01*
X001181Y003931D02*
X000931Y003681D01*
X001181Y003431D01*
X001181Y002931D01*
X000931Y002681D01*
X001181Y002431D01*
X001181Y001931D01*
X000931Y001681D01*
X001181Y001431D01*
X001181Y000931D01*
X000931Y000681D01*
X000431Y000681D01*
X000181Y000931D01*
X000181Y001431D01*
X000431Y001681D01*
X000181Y001931D01*
X000181Y002431D01*
X000431Y002681D01*
X000181Y002931D01*
X000181Y003431D01*
X000431Y003681D01*
X000181Y003931D01*
X000181Y004431D01*
X000431Y004681D01*
X000931Y004681D01*
X001181Y004431D01*
X001181Y003931D01*
X000931Y005681D02*
X000431Y005681D01*
X000181Y005931D01*
X000181Y006431D01*
X000431Y006681D01*
X000181Y006931D01*
X000181Y007431D01*
X000431Y007681D01*
X000181Y007931D01*
X000181Y008431D01*
X000431Y008681D01*
X000181Y008931D01*
X000181Y009431D01*
X000431Y009681D01*
X000931Y009681D01*
X001181Y009431D01*
X001181Y008931D01*
X000931Y008681D01*
X001181Y008431D01*
X001181Y007931D01*
X000931Y007681D01*
X001181Y007431D01*
X001181Y006931D01*
X000931Y006681D01*
X001181Y006431D01*
X001181Y005931D01*
X000931Y005681D01*
X000931Y010681D02*
X000431Y010681D01*
X000181Y010931D01*
X000181Y011431D01*
X000431Y011681D01*
X000181Y011931D01*
X000181Y012431D01*
X000431Y012681D01*
X000181Y012931D01*
X000181Y013431D01*
X000431Y013681D01*
X000181Y013931D01*
X000181Y014431D01*
X000431Y014681D01*
X000931Y014681D01*
X001181Y014431D01*
X001181Y013931D01*
X000931Y013681D01*
X001181Y013431D01*
X001181Y012931D01*
X000931Y012681D01*
X001181Y012431D01*
X001181Y011931D01*
X000931Y011681D01*
X001181Y011431D01*
X001181Y010931D01*
X000931Y010681D01*
X007631Y016481D02*
X007631Y016881D01*
X007197Y017181D02*
X007199Y017243D01*
X007205Y017306D01*
X007215Y017367D01*
X007229Y017428D01*
X007246Y017488D01*
X007267Y017547D01*
X007293Y017604D01*
X007321Y017659D01*
X007353Y017713D01*
X007389Y017764D01*
X007427Y017814D01*
X007469Y017860D01*
X007513Y017904D01*
X007561Y017945D01*
X007610Y017983D01*
X007662Y018017D01*
X007716Y018048D01*
X007772Y018076D01*
X007830Y018100D01*
X007889Y018121D01*
X007949Y018137D01*
X008010Y018150D01*
X008072Y018159D01*
X008134Y018164D01*
X008197Y018165D01*
X008259Y018162D01*
X008321Y018155D01*
X008383Y018144D01*
X008443Y018129D01*
X008503Y018111D01*
X008561Y018089D01*
X008618Y018063D01*
X008673Y018033D01*
X008726Y018000D01*
X008777Y017964D01*
X008825Y017925D01*
X008871Y017882D01*
X008914Y017837D01*
X008954Y017789D01*
X008991Y017739D01*
X009025Y017686D01*
X009056Y017632D01*
X009082Y017576D01*
X009106Y017518D01*
X009125Y017458D01*
X009141Y017398D01*
X009153Y017336D01*
X009161Y017275D01*
X009165Y017212D01*
X009165Y017150D01*
X009161Y017087D01*
X009153Y017026D01*
X009141Y016964D01*
X009125Y016904D01*
X009106Y016844D01*
X009082Y016786D01*
X009056Y016730D01*
X009025Y016676D01*
X008991Y016623D01*
X008954Y016573D01*
X008914Y016525D01*
X008871Y016480D01*
X008825Y016437D01*
X008777Y016398D01*
X008726Y016362D01*
X008673Y016329D01*
X008618Y016299D01*
X008561Y016273D01*
X008503Y016251D01*
X008443Y016233D01*
X008383Y016218D01*
X008321Y016207D01*
X008259Y016200D01*
X008197Y016197D01*
X008134Y016198D01*
X008072Y016203D01*
X008010Y016212D01*
X007949Y016225D01*
X007889Y016241D01*
X007830Y016262D01*
X007772Y016286D01*
X007716Y016314D01*
X007662Y016345D01*
X007610Y016379D01*
X007561Y016417D01*
X007513Y016458D01*
X007469Y016502D01*
X007427Y016548D01*
X007389Y016598D01*
X007353Y016649D01*
X007321Y016703D01*
X007293Y016758D01*
X007267Y016815D01*
X007246Y016874D01*
X007229Y016934D01*
X007215Y016995D01*
X007205Y017056D01*
X007199Y017119D01*
X007197Y017181D01*
X015181Y018681D02*
X015431Y018431D01*
X015931Y018431D01*
X016181Y018681D01*
X016431Y018431D01*
X016931Y018431D01*
X017181Y018681D01*
X017431Y018431D01*
X017931Y018431D01*
X018181Y018681D01*
X018181Y019181D01*
X017931Y019431D01*
X017431Y019431D01*
X017181Y019181D01*
X016931Y019431D01*
X016431Y019431D01*
X016181Y019181D01*
X015931Y019431D01*
X015431Y019431D01*
X015181Y019181D01*
X015181Y018681D01*
X018431Y018431D02*
X018431Y018931D01*
X018681Y019181D01*
X019181Y019181D01*
X019431Y018931D01*
X019431Y018431D01*
X019181Y018181D01*
X019431Y017931D01*
X019431Y017431D01*
X019181Y017181D01*
X019431Y016931D01*
X019431Y016431D01*
X019181Y016181D01*
X018681Y016181D01*
X018431Y016431D01*
X018431Y016931D01*
X018681Y017181D01*
X018431Y017431D01*
X018431Y017931D01*
X018681Y018181D01*
X018431Y018431D01*
X018931Y009681D02*
X018681Y009431D01*
X018681Y008931D01*
X018931Y008681D01*
X018681Y008431D01*
X018681Y007931D01*
X018931Y007681D01*
X018681Y007431D01*
X018681Y006931D01*
X018931Y006681D01*
X018681Y006431D01*
X018681Y005931D01*
X018931Y005681D01*
X019431Y005681D01*
X019681Y005931D01*
X019681Y006431D01*
X019431Y006681D01*
X019681Y006931D01*
X019681Y007431D01*
X019431Y007681D01*
X019681Y007931D01*
X019681Y008431D01*
X019431Y008681D01*
X019681Y008931D01*
X019681Y009431D01*
X019431Y009681D01*
X018931Y009681D01*
X018931Y004681D02*
X018681Y004431D01*
X018681Y003931D01*
X018931Y003681D01*
X018681Y003431D01*
X018681Y002931D01*
X018931Y002681D01*
X018681Y002431D01*
X018681Y001931D01*
X018931Y001681D01*
X018681Y001431D01*
X018681Y000931D01*
X018931Y000681D01*
X019431Y000681D01*
X019681Y000931D01*
X019681Y001431D01*
X019431Y001681D01*
X019681Y001931D01*
X019681Y002431D01*
X019431Y002681D01*
X019681Y002931D01*
X019681Y003431D01*
X019431Y003681D01*
X019681Y003931D01*
X019681Y004431D01*
X019431Y004681D01*
X018931Y004681D01*
X012697Y005681D02*
X012699Y005743D01*
X012705Y005806D01*
X012715Y005867D01*
X012729Y005928D01*
X012746Y005988D01*
X012767Y006047D01*
X012793Y006104D01*
X012821Y006159D01*
X012853Y006213D01*
X012889Y006264D01*
X012927Y006314D01*
X012969Y006360D01*
X013013Y006404D01*
X013061Y006445D01*
X013110Y006483D01*
X013162Y006517D01*
X013216Y006548D01*
X013272Y006576D01*
X013330Y006600D01*
X013389Y006621D01*
X013449Y006637D01*
X013510Y006650D01*
X013572Y006659D01*
X013634Y006664D01*
X013697Y006665D01*
X013759Y006662D01*
X013821Y006655D01*
X013883Y006644D01*
X013943Y006629D01*
X014003Y006611D01*
X014061Y006589D01*
X014118Y006563D01*
X014173Y006533D01*
X014226Y006500D01*
X014277Y006464D01*
X014325Y006425D01*
X014371Y006382D01*
X014414Y006337D01*
X014454Y006289D01*
X014491Y006239D01*
X014525Y006186D01*
X014556Y006132D01*
X014582Y006076D01*
X014606Y006018D01*
X014625Y005958D01*
X014641Y005898D01*
X014653Y005836D01*
X014661Y005775D01*
X014665Y005712D01*
X014665Y005650D01*
X014661Y005587D01*
X014653Y005526D01*
X014641Y005464D01*
X014625Y005404D01*
X014606Y005344D01*
X014582Y005286D01*
X014556Y005230D01*
X014525Y005176D01*
X014491Y005123D01*
X014454Y005073D01*
X014414Y005025D01*
X014371Y004980D01*
X014325Y004937D01*
X014277Y004898D01*
X014226Y004862D01*
X014173Y004829D01*
X014118Y004799D01*
X014061Y004773D01*
X014003Y004751D01*
X013943Y004733D01*
X013883Y004718D01*
X013821Y004707D01*
X013759Y004700D01*
X013697Y004697D01*
X013634Y004698D01*
X013572Y004703D01*
X013510Y004712D01*
X013449Y004725D01*
X013389Y004741D01*
X013330Y004762D01*
X013272Y004786D01*
X013216Y004814D01*
X013162Y004845D01*
X013110Y004879D01*
X013061Y004917D01*
X013013Y004958D01*
X012969Y005002D01*
X012927Y005048D01*
X012889Y005098D01*
X012853Y005149D01*
X012821Y005203D01*
X012793Y005258D01*
X012767Y005315D01*
X012746Y005374D01*
X012729Y005434D01*
X012715Y005495D01*
X012705Y005556D01*
X012699Y005619D01*
X012697Y005681D01*
X013131Y005381D02*
X013131Y004981D01*
D16*
X013381Y013561D02*
X013981Y013561D01*
X013981Y013811D02*
X013381Y013811D01*
X010481Y016051D02*
X009881Y016051D01*
X009881Y016301D02*
X010481Y016301D01*
X008311Y018881D02*
X008311Y019481D01*
X008061Y019481D02*
X008061Y018881D01*
X004061Y002231D02*
X004061Y001631D01*
X003811Y001631D02*
X003811Y002231D01*
D17*
X019328Y010736D02*
X019376Y010766D01*
X019421Y010799D01*
X019464Y010835D01*
X019505Y010873D01*
X019542Y010915D01*
X019577Y010959D01*
X019608Y011005D01*
X019637Y011054D01*
X019661Y011104D01*
X019682Y011156D01*
X019700Y011210D01*
X019713Y011264D01*
X019723Y011319D01*
X019729Y011375D01*
X019731Y011431D01*
X019729Y011484D01*
X019724Y011538D01*
X019715Y011590D01*
X019703Y011642D01*
X019687Y011693D01*
X019668Y011743D01*
X019645Y011792D01*
X019619Y011839D01*
X019591Y011884D01*
X019559Y011927D01*
X019525Y011967D01*
X019487Y012006D01*
X019448Y012042D01*
X018131Y011431D02*
X018133Y011377D01*
X018138Y011323D01*
X018147Y011270D01*
X018160Y011217D01*
X018176Y011166D01*
X018196Y011116D01*
X018219Y011067D01*
X018245Y011019D01*
X018274Y010974D01*
X018307Y010931D01*
X018342Y010890D01*
X018380Y010851D01*
X018420Y010815D01*
X018463Y010782D01*
X018508Y010752D01*
X018555Y010725D01*
X018131Y011431D02*
X018133Y011485D01*
X018138Y011538D01*
X018147Y011592D01*
X018160Y011644D01*
X018176Y011695D01*
X018196Y011746D01*
X018218Y011795D01*
X018244Y011842D01*
X018274Y011887D01*
X018306Y011930D01*
X018341Y011971D01*
X018379Y012010D01*
X018419Y012046D01*
X019731Y013181D02*
X019729Y013235D01*
X019724Y013289D01*
X019715Y013342D01*
X019702Y013395D01*
X019686Y013446D01*
X019666Y013496D01*
X019643Y013545D01*
X019617Y013593D01*
X019588Y013638D01*
X019555Y013681D01*
X019520Y013722D01*
X019482Y013761D01*
X019442Y013797D01*
X019399Y013830D01*
X019354Y013860D01*
X019307Y013887D01*
X018534Y013876D02*
X018486Y013846D01*
X018441Y013813D01*
X018398Y013777D01*
X018357Y013739D01*
X018320Y013697D01*
X018285Y013653D01*
X018254Y013607D01*
X018225Y013558D01*
X018201Y013508D01*
X018180Y013456D01*
X018162Y013402D01*
X018149Y013348D01*
X018139Y013293D01*
X018133Y013237D01*
X018131Y013181D01*
X018133Y013128D01*
X018138Y013074D01*
X018147Y013022D01*
X018159Y012970D01*
X018175Y012919D01*
X018194Y012869D01*
X018217Y012820D01*
X018243Y012773D01*
X018271Y012728D01*
X018303Y012685D01*
X018337Y012645D01*
X018375Y012606D01*
X018414Y012570D01*
X019443Y012566D02*
X019483Y012602D01*
X019521Y012641D01*
X019556Y012682D01*
X019588Y012725D01*
X019618Y012770D01*
X019644Y012817D01*
X019666Y012866D01*
X019686Y012917D01*
X019702Y012968D01*
X019715Y013020D01*
X019724Y013074D01*
X019729Y013127D01*
X019731Y013181D01*
X011078Y018236D02*
X011126Y018266D01*
X011171Y018299D01*
X011214Y018335D01*
X011255Y018373D01*
X011292Y018415D01*
X011327Y018459D01*
X011358Y018505D01*
X011387Y018554D01*
X011411Y018604D01*
X011432Y018656D01*
X011450Y018710D01*
X011463Y018764D01*
X011473Y018819D01*
X011479Y018875D01*
X011481Y018931D01*
X011479Y018984D01*
X011474Y019038D01*
X011465Y019090D01*
X011453Y019142D01*
X011437Y019193D01*
X011418Y019243D01*
X011395Y019292D01*
X011369Y019339D01*
X011341Y019384D01*
X011309Y019427D01*
X011275Y019467D01*
X011237Y019506D01*
X011198Y019542D01*
X009881Y018931D02*
X009883Y018877D01*
X009888Y018823D01*
X009897Y018770D01*
X009910Y018717D01*
X009926Y018666D01*
X009946Y018616D01*
X009969Y018567D01*
X009995Y018519D01*
X010024Y018474D01*
X010057Y018431D01*
X010092Y018390D01*
X010130Y018351D01*
X010170Y018315D01*
X010213Y018282D01*
X010258Y018252D01*
X010305Y018225D01*
X009881Y018931D02*
X009883Y018985D01*
X009888Y019038D01*
X009897Y019092D01*
X009910Y019144D01*
X009926Y019195D01*
X009946Y019246D01*
X009968Y019295D01*
X009994Y019342D01*
X010024Y019387D01*
X010056Y019430D01*
X010091Y019471D01*
X010129Y019510D01*
X010169Y019546D01*
D18*
X006641Y015861D03*
D19*
X005431Y015956D03*
X005431Y019406D03*
D20*
X005331Y018681D03*
X005331Y017681D03*
X005331Y016681D03*
D21*
X005431Y017181D03*
X005431Y018181D03*
M02*
