G75*
G70*
%OFA0B0*%
%FSLAX24Y24*%
%IPPOS*%
%LPD*%
%AMOC8*
5,1,8,0,0,1.08239X$1,22.5*
%
%ADD10C,0.0000*%
%ADD11C,0.0520*%
%ADD12R,0.0650X0.0650*%
%ADD13C,0.0650*%
%ADD14OC8,0.0520*%
%ADD15R,0.0740X0.0740*%
%ADD16C,0.0740*%
%ADD17C,0.0515*%
%ADD18C,0.1122*%
%ADD19C,0.0600*%
%ADD20C,0.0160*%
%ADD21C,0.0317*%
D10*
X000181Y000181D02*
X000181Y019866D01*
X019866Y019866D01*
X019866Y000181D01*
X000181Y000181D01*
D11*
X008421Y001181D02*
X008941Y001181D01*
X008941Y002181D02*
X008421Y002181D01*
X008421Y003181D02*
X008941Y003181D01*
X008941Y004181D02*
X008421Y004181D01*
X008421Y005181D02*
X008941Y005181D01*
X008941Y006181D02*
X008421Y006181D01*
X008421Y007181D02*
X008941Y007181D01*
X008941Y008181D02*
X008421Y008181D01*
X008421Y009181D02*
X008941Y009181D01*
X008941Y010181D02*
X008421Y010181D01*
X008421Y011181D02*
X008941Y011181D01*
X008941Y012181D02*
X008421Y012181D01*
X008421Y013181D02*
X008941Y013181D01*
X008941Y014181D02*
X008421Y014181D01*
X011421Y014181D02*
X011941Y014181D01*
X011941Y013181D02*
X011421Y013181D01*
X011421Y012181D02*
X011941Y012181D01*
X011941Y011181D02*
X011421Y011181D01*
X011421Y010181D02*
X011941Y010181D01*
X011941Y009181D02*
X011421Y009181D01*
X011421Y008181D02*
X011941Y008181D01*
X011941Y007181D02*
X011421Y007181D01*
X011421Y006181D02*
X011941Y006181D01*
X011941Y005181D02*
X011421Y005181D01*
X011421Y004181D02*
X011941Y004181D01*
X011941Y003181D02*
X011421Y003181D01*
X011421Y002181D02*
X011941Y002181D01*
X011941Y001181D02*
X011421Y001181D01*
D12*
X013681Y006181D03*
X008181Y017681D03*
D13*
X008181Y016681D03*
X013681Y005181D03*
D14*
X016681Y004681D03*
X016681Y001681D03*
X014806Y010431D03*
X013681Y013181D03*
X013681Y014181D03*
X014806Y013431D03*
X016181Y015181D03*
X014181Y015681D03*
X014181Y018681D03*
X010681Y018431D03*
X010681Y019431D03*
X008681Y019181D03*
X007681Y019181D03*
X010181Y016681D03*
X010181Y015681D03*
X002431Y012806D03*
X002431Y009806D03*
X003431Y001931D03*
X004431Y001931D03*
X018931Y010931D03*
X018931Y011931D03*
X018931Y012681D03*
X018931Y013681D03*
X019181Y015181D03*
D15*
X018931Y016681D03*
X015681Y018931D03*
X019181Y009181D03*
X019181Y004181D03*
X007181Y006681D03*
X002681Y000681D03*
X000681Y004181D03*
X000681Y009181D03*
X000681Y014181D03*
D16*
X000681Y013181D03*
X000681Y012181D03*
X000681Y011181D03*
X000681Y008181D03*
X000681Y007181D03*
X000681Y006181D03*
X000681Y003181D03*
X000681Y002181D03*
X000681Y001181D03*
X003681Y000681D03*
X004681Y000681D03*
X005681Y000681D03*
X006681Y000681D03*
X007181Y004681D03*
X007181Y005681D03*
X018931Y017681D03*
X018931Y018681D03*
X017681Y018931D03*
X016681Y018931D03*
X019181Y008181D03*
X019181Y007181D03*
X019181Y006181D03*
X019181Y003181D03*
X019181Y002181D03*
X019181Y001181D03*
D17*
X003101Y016581D03*
X002431Y016581D03*
X002101Y017201D03*
X002791Y017201D03*
X001731Y016581D03*
D18*
X000994Y018681D03*
X003868Y018681D03*
D19*
X005881Y018681D02*
X006481Y018681D01*
X006481Y017681D02*
X005881Y017681D01*
X005881Y016681D02*
X006481Y016681D01*
D20*
X006202Y016670D02*
X007676Y016670D01*
X007676Y016681D02*
X007676Y016642D01*
X007689Y016563D01*
X007713Y016488D01*
X007749Y016417D01*
X007796Y016352D01*
X007852Y016296D01*
X007917Y016249D01*
X007988Y016213D01*
X008063Y016189D01*
X008142Y016176D01*
X008181Y016176D01*
X008181Y016681D01*
X008182Y016681D01*
X008182Y016682D01*
X008686Y016682D01*
X008686Y016721D01*
X008674Y016800D01*
X008649Y016875D01*
X008613Y016946D01*
X008567Y017010D01*
X008510Y017067D01*
X008446Y017113D01*
X008375Y017149D01*
X008353Y017156D01*
X008589Y017156D01*
X008706Y017274D01*
X008706Y017401D01*
X009508Y017401D01*
X009756Y016906D01*
X009721Y016872D01*
X009721Y016491D01*
X009991Y016221D01*
X010372Y016221D01*
X010448Y016297D01*
X011401Y015980D01*
X011401Y014641D01*
X011330Y014641D01*
X011161Y014571D01*
X011031Y014442D01*
X010961Y014273D01*
X010961Y014090D01*
X011031Y013921D01*
X011161Y013791D01*
X011330Y013721D01*
X012033Y013721D01*
X012202Y013791D01*
X012312Y013901D01*
X013311Y013901D01*
X013491Y013721D01*
X013872Y013721D01*
X014141Y013991D01*
X014141Y014372D01*
X013961Y014552D01*
X013961Y015065D01*
X014117Y015221D01*
X014372Y015221D01*
X014552Y015401D01*
X015565Y015401D01*
X015721Y015245D01*
X015721Y014991D01*
X015991Y014721D01*
X016372Y014721D01*
X016641Y014991D01*
X016641Y015372D01*
X016372Y015641D01*
X016117Y015641D01*
X015840Y015919D01*
X015737Y015961D01*
X015626Y015961D01*
X014552Y015961D01*
X014372Y016141D01*
X013991Y016141D01*
X013721Y015872D01*
X013721Y015617D01*
X013444Y015340D01*
X013401Y015237D01*
X013401Y015126D01*
X013401Y014552D01*
X013311Y014461D01*
X012312Y014461D01*
X012202Y014571D01*
X012033Y014641D01*
X011961Y014641D01*
X011961Y016136D01*
X011965Y016146D01*
X011961Y016191D01*
X011961Y016237D01*
X011957Y016247D01*
X011957Y016257D01*
X011936Y016298D01*
X011919Y016340D01*
X011912Y016347D01*
X011907Y016356D01*
X011872Y016387D01*
X011840Y016419D01*
X011831Y016423D01*
X011823Y016429D01*
X011779Y016444D01*
X011737Y016461D01*
X011727Y016461D01*
X010641Y016823D01*
X010641Y016872D01*
X010372Y017141D01*
X010264Y017141D01*
X009936Y017798D01*
X009919Y017840D01*
X009912Y017847D01*
X009907Y017856D01*
X009872Y017887D01*
X009840Y017919D01*
X009831Y017923D01*
X009823Y017929D01*
X009779Y017944D01*
X009737Y017961D01*
X009727Y017961D01*
X009717Y017965D01*
X009672Y017961D01*
X008706Y017961D01*
X008706Y018089D01*
X008589Y018206D01*
X007774Y018206D01*
X007656Y018089D01*
X007656Y017961D01*
X006907Y017961D01*
X006905Y017965D01*
X006765Y018105D01*
X006581Y018181D01*
X005782Y018181D01*
X005598Y018105D01*
X005458Y017965D01*
X005381Y017781D01*
X005381Y017582D01*
X005458Y017398D01*
X005598Y017258D01*
X005782Y017181D01*
X006581Y017181D01*
X006765Y017258D01*
X006905Y017398D01*
X006907Y017401D01*
X007656Y017401D01*
X007656Y017274D01*
X007774Y017156D01*
X008009Y017156D01*
X007988Y017149D01*
X007917Y017113D01*
X007852Y017067D01*
X007796Y017010D01*
X007749Y016946D01*
X007713Y016875D01*
X007689Y016800D01*
X007676Y016721D01*
X007676Y016682D01*
X008181Y016682D01*
X008181Y016681D01*
X007676Y016681D01*
X007698Y016828D02*
X006938Y016828D01*
X006950Y016794D02*
X006926Y016866D01*
X006892Y016933D01*
X006848Y016994D01*
X006794Y017048D01*
X006733Y017092D01*
X006666Y017126D01*
X006594Y017150D01*
X006519Y017161D01*
X006201Y017161D01*
X006201Y016702D01*
X006161Y016702D01*
X006161Y017161D01*
X005844Y017161D01*
X005769Y017150D01*
X005697Y017126D01*
X005630Y017092D01*
X005569Y017048D01*
X005515Y016994D01*
X005471Y016933D01*
X005437Y016866D01*
X005413Y016794D01*
X005401Y016719D01*
X005401Y016701D01*
X006161Y016701D01*
X006161Y016661D01*
X006201Y016661D01*
X006201Y016201D01*
X006519Y016201D01*
X006594Y016213D01*
X006666Y016237D01*
X006733Y016271D01*
X006794Y016315D01*
X006848Y016369D01*
X006892Y016430D01*
X006926Y016497D01*
X006950Y016569D01*
X006961Y016644D01*
X006961Y016661D01*
X006202Y016661D01*
X006202Y016701D01*
X006961Y016701D01*
X006961Y016719D01*
X006950Y016794D01*
X006853Y016987D02*
X007779Y016987D01*
X007980Y017146D02*
X006606Y017146D01*
X006811Y017304D02*
X007656Y017304D01*
X008181Y017681D02*
X009681Y017681D01*
X010181Y016681D01*
X011681Y016181D01*
X011681Y014181D01*
X013681Y014181D01*
X013681Y015181D01*
X014181Y015681D01*
X015681Y015681D01*
X016181Y015181D01*
X015721Y015243D02*
X014394Y015243D01*
X013980Y015084D02*
X015721Y015084D01*
X015786Y014926D02*
X013961Y014926D01*
X013961Y014767D02*
X015945Y014767D01*
X016418Y014767D02*
X018945Y014767D01*
X018991Y014721D02*
X019372Y014721D01*
X019641Y014991D01*
X019641Y015372D01*
X019372Y015641D01*
X018991Y015641D01*
X018721Y015372D01*
X018721Y014991D01*
X018991Y014721D01*
X018786Y014926D02*
X016576Y014926D01*
X016641Y015084D02*
X018721Y015084D01*
X018721Y015243D02*
X016641Y015243D01*
X016612Y015402D02*
X018751Y015402D01*
X018910Y015560D02*
X016453Y015560D01*
X016040Y015719D02*
X019666Y015719D01*
X019666Y015877D02*
X015882Y015877D01*
X014478Y016036D02*
X019666Y016036D01*
X019666Y016194D02*
X019467Y016194D01*
X019501Y016229D02*
X019501Y017134D01*
X019384Y017251D01*
X019307Y017251D01*
X019415Y017359D01*
X019501Y017568D01*
X019501Y017795D01*
X019415Y018004D01*
X019254Y018165D01*
X019185Y018193D01*
X019220Y018211D01*
X019290Y018262D01*
X019351Y018323D01*
X019402Y018393D01*
X019441Y018470D01*
X019468Y018553D01*
X019481Y018638D01*
X019481Y018661D01*
X018952Y018661D01*
X018952Y018701D01*
X019481Y018701D01*
X019481Y018725D01*
X019468Y018810D01*
X019441Y018893D01*
X019402Y018970D01*
X019351Y019040D01*
X019290Y019101D01*
X019220Y019152D01*
X019143Y019191D01*
X019060Y019218D01*
X018975Y019231D01*
X018951Y019231D01*
X018951Y018702D01*
X018911Y018702D01*
X018911Y019231D01*
X018888Y019231D01*
X018803Y019218D01*
X018720Y019191D01*
X018643Y019152D01*
X018573Y019101D01*
X018512Y019040D01*
X018461Y018970D01*
X018422Y018893D01*
X018395Y018810D01*
X018381Y018725D01*
X018381Y018701D01*
X018911Y018701D01*
X018911Y018661D01*
X018381Y018661D01*
X018381Y018638D01*
X018395Y018553D01*
X018422Y018470D01*
X018461Y018393D01*
X018512Y018323D01*
X018573Y018262D01*
X018643Y018211D01*
X018678Y018193D01*
X018609Y018165D01*
X018448Y018004D01*
X018361Y017795D01*
X018361Y017568D01*
X018448Y017359D01*
X018555Y017251D01*
X018479Y017251D01*
X018361Y017134D01*
X018361Y016229D01*
X018479Y016111D01*
X019384Y016111D01*
X019501Y016229D01*
X019501Y016353D02*
X019666Y016353D01*
X019666Y016511D02*
X019501Y016511D01*
X019501Y016670D02*
X019666Y016670D01*
X019666Y016828D02*
X019501Y016828D01*
X019501Y016987D02*
X019666Y016987D01*
X019666Y017146D02*
X019490Y017146D01*
X019360Y017304D02*
X019666Y017304D01*
X019666Y017463D02*
X019458Y017463D01*
X019501Y017621D02*
X019666Y017621D01*
X019666Y017780D02*
X019501Y017780D01*
X019442Y017938D02*
X019666Y017938D01*
X019666Y018097D02*
X019322Y018097D01*
X019281Y018255D02*
X019666Y018255D01*
X019666Y018414D02*
X019412Y018414D01*
X019471Y018572D02*
X019666Y018572D01*
X019666Y018731D02*
X019480Y018731D01*
X019442Y018890D02*
X019666Y018890D01*
X019666Y019048D02*
X019343Y019048D01*
X019095Y019207D02*
X019666Y019207D01*
X019666Y019365D02*
X018020Y019365D01*
X018040Y019351D02*
X017970Y019402D01*
X017893Y019441D01*
X017810Y019468D01*
X017725Y019481D01*
X017701Y019481D01*
X017701Y018952D01*
X017661Y018952D01*
X017661Y019481D01*
X017638Y019481D01*
X017553Y019468D01*
X017470Y019441D01*
X017393Y019402D01*
X017323Y019351D01*
X017262Y019290D01*
X017211Y019220D01*
X017193Y019185D01*
X017165Y019254D01*
X017004Y019415D01*
X016795Y019501D01*
X016568Y019501D01*
X016359Y019415D01*
X016251Y019307D01*
X016251Y019384D01*
X016134Y019501D01*
X015229Y019501D01*
X015189Y019462D01*
X015146Y019465D01*
X015136Y019461D01*
X015126Y019461D01*
X015084Y019444D01*
X015040Y019429D01*
X015032Y019423D01*
X015023Y019419D01*
X014991Y019387D01*
X014956Y019356D01*
X014951Y019347D01*
X014565Y018961D01*
X014552Y018961D01*
X014372Y019141D01*
X013991Y019141D01*
X013721Y018872D01*
X013721Y018491D01*
X013991Y018221D01*
X014372Y018221D01*
X014552Y018401D01*
X014626Y018401D01*
X014737Y018401D01*
X014840Y018444D01*
X015111Y018716D01*
X015111Y018479D01*
X015229Y018361D01*
X016134Y018361D01*
X016251Y018479D01*
X016251Y018555D01*
X016359Y018448D01*
X016568Y018361D01*
X016795Y018361D01*
X017004Y018448D01*
X017165Y018609D01*
X017193Y018678D01*
X017211Y018643D01*
X017262Y018573D01*
X017323Y018512D01*
X017393Y018461D01*
X017470Y018422D01*
X017553Y018395D01*
X017638Y018381D01*
X017661Y018381D01*
X017661Y018911D01*
X017701Y018911D01*
X017701Y018381D01*
X017725Y018381D01*
X017810Y018395D01*
X017893Y018422D01*
X017970Y018461D01*
X018040Y018512D01*
X018101Y018573D01*
X018152Y018643D01*
X018191Y018720D01*
X018218Y018803D01*
X018231Y018888D01*
X018231Y018911D01*
X017702Y018911D01*
X017702Y018951D01*
X018231Y018951D01*
X018231Y018975D01*
X018218Y019060D01*
X018191Y019143D01*
X018152Y019220D01*
X018101Y019290D01*
X018040Y019351D01*
X018158Y019207D02*
X018768Y019207D01*
X018911Y019207D02*
X018951Y019207D01*
X018951Y019048D02*
X018911Y019048D01*
X018911Y018890D02*
X018951Y018890D01*
X018951Y018731D02*
X018911Y018731D01*
X018520Y019048D02*
X018220Y019048D01*
X018231Y018890D02*
X018421Y018890D01*
X018382Y018731D02*
X018195Y018731D01*
X018100Y018572D02*
X018392Y018572D01*
X018450Y018414D02*
X017869Y018414D01*
X017701Y018414D02*
X017661Y018414D01*
X017661Y018572D02*
X017701Y018572D01*
X017701Y018731D02*
X017661Y018731D01*
X017661Y018890D02*
X017701Y018890D01*
X017701Y019048D02*
X017661Y019048D01*
X017661Y019207D02*
X017701Y019207D01*
X017701Y019365D02*
X017661Y019365D01*
X017343Y019365D02*
X017054Y019365D01*
X017184Y019207D02*
X017204Y019207D01*
X017263Y018572D02*
X017129Y018572D01*
X016921Y018414D02*
X017494Y018414D01*
X018421Y017938D02*
X009796Y017938D01*
X009945Y017780D02*
X018361Y017780D01*
X018361Y017621D02*
X010025Y017621D01*
X010104Y017463D02*
X018405Y017463D01*
X018503Y017304D02*
X010183Y017304D01*
X010262Y017146D02*
X018373Y017146D01*
X018361Y016987D02*
X010526Y016987D01*
X010641Y016828D02*
X018361Y016828D01*
X018361Y016670D02*
X011101Y016670D01*
X011577Y016511D02*
X018361Y016511D01*
X018361Y016353D02*
X011909Y016353D01*
X011961Y016194D02*
X018396Y016194D01*
X019453Y015560D02*
X019666Y015560D01*
X019666Y015402D02*
X019612Y015402D01*
X019641Y015243D02*
X019666Y015243D01*
X019666Y015084D02*
X019641Y015084D01*
X019666Y014926D02*
X019576Y014926D01*
X019666Y014767D02*
X019418Y014767D01*
X019666Y014609D02*
X013961Y014609D01*
X014063Y014450D02*
X019666Y014450D01*
X019666Y014292D02*
X014141Y014292D01*
X014141Y014133D02*
X018733Y014133D01*
X018741Y014141D02*
X018561Y013961D01*
X017626Y013961D01*
X017523Y013919D01*
X017444Y013840D01*
X017315Y013711D01*
X015177Y013711D01*
X014997Y013891D01*
X014616Y013891D01*
X014346Y013622D01*
X014346Y013241D01*
X014616Y012971D01*
X014997Y012971D01*
X015177Y013151D01*
X017376Y013151D01*
X017487Y013151D01*
X017590Y013194D01*
X017797Y013401D01*
X018561Y013401D01*
X018741Y013221D01*
X019122Y013221D01*
X019391Y013491D01*
X019391Y013872D01*
X019122Y014141D01*
X018741Y014141D01*
X018574Y013975D02*
X014125Y013975D01*
X013967Y013816D02*
X014541Y013816D01*
X014382Y013658D02*
X009855Y013658D01*
X009538Y013816D02*
X011136Y013816D01*
X011009Y013975D02*
X009354Y013975D01*
X009332Y013922D02*
X009401Y014090D01*
X009401Y014273D01*
X009331Y014442D01*
X009202Y014571D01*
X009033Y014641D01*
X008330Y014641D01*
X008161Y014571D01*
X008051Y014461D01*
X003408Y014461D01*
X003384Y014485D01*
X003253Y014540D01*
X003110Y014540D01*
X002978Y014485D01*
X002955Y014461D01*
X002468Y014461D01*
X002485Y014478D01*
X002507Y014531D01*
X002748Y014651D01*
X008886Y014651D01*
X008896Y014648D01*
X008941Y014651D01*
X008987Y014651D01*
X008997Y014655D01*
X009007Y014656D01*
X009048Y014677D01*
X009090Y014694D01*
X009097Y014701D01*
X009349Y014827D01*
X009360Y014823D01*
X009503Y014823D01*
X009634Y014878D01*
X009735Y014978D01*
X009790Y015110D01*
X009790Y015253D01*
X009735Y015384D01*
X009634Y015485D01*
X009503Y015540D01*
X009360Y015540D01*
X009228Y015485D01*
X009128Y015384D01*
X009106Y015332D01*
X008865Y015211D01*
X002727Y015211D01*
X002717Y015215D01*
X002672Y015211D01*
X002626Y015211D01*
X002616Y015207D01*
X002606Y015207D01*
X002565Y015186D01*
X002523Y015169D01*
X002516Y015162D01*
X002263Y015035D01*
X002253Y015040D01*
X002110Y015040D01*
X001978Y014985D01*
X001878Y014884D01*
X001823Y014753D01*
X001823Y014610D01*
X001878Y014478D01*
X001895Y014461D01*
X001251Y014461D01*
X001251Y014634D01*
X001134Y014751D01*
X000381Y014751D01*
X000381Y018218D01*
X000563Y018036D01*
X000843Y017920D01*
X001146Y017920D01*
X001425Y018036D01*
X001640Y018250D01*
X001755Y018530D01*
X001755Y018833D01*
X001640Y019112D01*
X001425Y019327D01*
X001146Y019442D01*
X000843Y019442D01*
X000563Y019327D01*
X000381Y019145D01*
X000381Y019666D01*
X010294Y019666D01*
X010241Y019614D01*
X010241Y019432D01*
X010681Y019432D01*
X010681Y019431D01*
X010682Y019431D01*
X010682Y019432D01*
X011121Y019432D01*
X011121Y019614D01*
X011069Y019666D01*
X019666Y019666D01*
X019666Y009719D01*
X019634Y009751D01*
X018729Y009751D01*
X018611Y009634D01*
X018611Y009461D01*
X015297Y009461D01*
X015086Y009672D01*
X015086Y010061D01*
X015266Y010241D01*
X015266Y010622D01*
X014997Y010891D01*
X014742Y010891D01*
X013215Y012419D01*
X013112Y012461D01*
X013001Y012461D01*
X012312Y012461D01*
X012202Y012571D01*
X012033Y012641D01*
X011330Y012641D01*
X011161Y012571D01*
X011031Y012442D01*
X010961Y012273D01*
X010961Y012090D01*
X011031Y011921D01*
X011161Y011791D01*
X011330Y011721D01*
X012033Y011721D01*
X012202Y011791D01*
X012312Y011901D01*
X012940Y011901D01*
X014346Y010495D01*
X014346Y010241D01*
X014526Y010061D01*
X014526Y009612D01*
X014526Y009501D01*
X014569Y009398D01*
X015023Y008944D01*
X015126Y008901D01*
X015237Y008901D01*
X018611Y008901D01*
X013961Y008901D01*
X013961Y008797D02*
X013961Y010237D01*
X013919Y010340D01*
X013840Y010419D01*
X012840Y011419D01*
X012737Y011461D01*
X012626Y011461D01*
X012312Y011461D01*
X012202Y011571D01*
X012033Y011641D01*
X011330Y011641D01*
X011161Y011571D01*
X011031Y011442D01*
X010961Y011273D01*
X010961Y011090D01*
X011031Y010921D01*
X011161Y010791D01*
X011330Y010721D01*
X012033Y010721D01*
X012202Y010791D01*
X012312Y010901D01*
X012565Y010901D01*
X013401Y010065D01*
X013401Y008737D01*
X013401Y008626D01*
X013444Y008523D01*
X013944Y008023D01*
X014023Y007944D01*
X014126Y007901D01*
X018680Y007901D01*
X018698Y007859D01*
X018859Y007698D01*
X018899Y007681D01*
X018859Y007665D01*
X018698Y007504D01*
X018680Y007461D01*
X017408Y007461D01*
X017384Y007485D01*
X017253Y007540D01*
X017110Y007540D01*
X016978Y007485D01*
X016955Y007461D01*
X013797Y007461D01*
X012961Y008297D01*
X012961Y009737D01*
X012919Y009840D01*
X012840Y009919D01*
X012342Y010417D01*
X012331Y010442D01*
X012202Y010571D01*
X012033Y010641D01*
X011330Y010641D01*
X011161Y010571D01*
X011031Y010442D01*
X010961Y010273D01*
X010961Y010090D01*
X011031Y009921D01*
X011161Y009791D01*
X011330Y009721D01*
X012033Y009721D01*
X012183Y009784D01*
X012401Y009565D01*
X012401Y008237D01*
X012401Y008126D01*
X012444Y008023D01*
X013444Y007023D01*
X013523Y006944D01*
X013626Y006901D01*
X016955Y006901D01*
X016978Y006878D01*
X017110Y006823D01*
X017253Y006823D01*
X017384Y006878D01*
X017408Y006901D01*
X018680Y006901D01*
X018698Y006859D01*
X018859Y006698D01*
X018899Y006681D01*
X018859Y006665D01*
X018698Y006504D01*
X018680Y006461D01*
X016408Y006461D01*
X016384Y006485D01*
X016253Y006540D01*
X016110Y006540D01*
X015978Y006485D01*
X015878Y006384D01*
X015823Y006253D01*
X015823Y006219D01*
X014065Y004461D01*
X012312Y004461D01*
X012202Y004571D01*
X012033Y004641D01*
X011330Y004641D01*
X011161Y004571D01*
X011031Y004442D01*
X010961Y004273D01*
X010961Y004090D01*
X011031Y003921D01*
X011161Y003791D01*
X011330Y003721D01*
X012033Y003721D01*
X012202Y003791D01*
X012312Y003901D01*
X014126Y003901D01*
X014237Y003901D01*
X014340Y003944D01*
X016219Y005823D01*
X016253Y005823D01*
X016384Y005878D01*
X016408Y005901D01*
X018680Y005901D01*
X018698Y005859D01*
X018859Y005698D01*
X019068Y005611D01*
X019295Y005611D01*
X019504Y005698D01*
X019665Y005859D01*
X019666Y005863D01*
X019666Y004719D01*
X019634Y004751D01*
X018729Y004751D01*
X018611Y004634D01*
X018611Y004209D01*
X018065Y003936D01*
X018023Y003919D01*
X018016Y003912D01*
X018006Y003907D01*
X017976Y003872D01*
X017565Y003461D01*
X012312Y003461D01*
X012202Y003571D01*
X012033Y003641D01*
X011330Y003641D01*
X011161Y003571D01*
X011031Y003442D01*
X010961Y003273D01*
X010961Y003090D01*
X011031Y002921D01*
X011161Y002791D01*
X011330Y002721D01*
X012033Y002721D01*
X012202Y002791D01*
X012312Y002901D01*
X017626Y002901D01*
X017737Y002901D01*
X017840Y002944D01*
X018347Y003451D01*
X018708Y003632D01*
X018729Y003611D01*
X018805Y003611D01*
X018698Y003504D01*
X018611Y003295D01*
X018611Y003068D01*
X018629Y003025D01*
X017565Y001961D01*
X017052Y001961D01*
X016872Y002141D01*
X016491Y002141D01*
X016311Y001961D01*
X012797Y001961D01*
X012342Y002417D01*
X012331Y002442D01*
X012202Y002571D01*
X012033Y002641D01*
X011330Y002641D01*
X011161Y002571D01*
X011031Y002442D01*
X010961Y002273D01*
X010961Y002090D01*
X011031Y001921D01*
X011161Y001791D01*
X011330Y001721D01*
X012033Y001721D01*
X012183Y001784D01*
X012444Y001523D01*
X012523Y001444D01*
X012626Y001401D01*
X016311Y001401D01*
X016491Y001221D01*
X016872Y001221D01*
X017052Y001401D01*
X017626Y001401D01*
X017737Y001401D01*
X017840Y001444D01*
X018633Y002238D01*
X018631Y002225D01*
X018631Y002201D01*
X019161Y002201D01*
X019161Y002161D01*
X018631Y002161D01*
X018631Y002138D01*
X018645Y002053D01*
X018672Y001970D01*
X018711Y001893D01*
X018762Y001823D01*
X018823Y001762D01*
X018893Y001711D01*
X018928Y001693D01*
X018859Y001665D01*
X018698Y001504D01*
X018611Y001295D01*
X018611Y001068D01*
X018629Y001025D01*
X018565Y000961D01*
X012348Y000961D01*
X012401Y001090D01*
X012401Y001273D01*
X012331Y001442D01*
X012202Y001571D01*
X012033Y001641D01*
X011330Y001641D01*
X011161Y001571D01*
X011051Y001461D01*
X010297Y001461D01*
X010040Y001719D01*
X010040Y001753D01*
X009985Y001884D01*
X009884Y001985D01*
X009753Y002040D01*
X009610Y002040D01*
X009478Y001985D01*
X009378Y001884D01*
X009323Y001753D01*
X009323Y001610D01*
X009378Y001478D01*
X009478Y001378D01*
X009610Y001323D01*
X009644Y001323D01*
X010023Y000944D01*
X010126Y000901D01*
X010237Y000901D01*
X011051Y000901D01*
X011161Y000791D01*
X011330Y000721D01*
X011745Y000721D01*
X011944Y000523D01*
X011944Y000523D01*
X012023Y000444D01*
X012126Y000401D01*
X018626Y000401D01*
X018737Y000401D01*
X018840Y000444D01*
X019025Y000629D01*
X019068Y000611D01*
X019295Y000611D01*
X019504Y000698D01*
X019665Y000859D01*
X019666Y000863D01*
X019666Y000381D01*
X007174Y000381D01*
X007251Y000568D01*
X007251Y000795D01*
X007165Y001004D01*
X007004Y001165D01*
X006795Y001251D01*
X006568Y001251D01*
X006359Y001165D01*
X006198Y001004D01*
X006181Y000964D01*
X006165Y001004D01*
X006004Y001165D01*
X005795Y001251D01*
X005568Y001251D01*
X005359Y001165D01*
X005198Y001004D01*
X005169Y000935D01*
X005152Y000970D01*
X005101Y001040D01*
X005040Y001101D01*
X004970Y001152D01*
X004893Y001191D01*
X004810Y001218D01*
X004725Y001231D01*
X004701Y001231D01*
X004701Y000702D01*
X004661Y000702D01*
X004661Y001231D01*
X004638Y001231D01*
X004553Y001218D01*
X004470Y001191D01*
X004393Y001152D01*
X004323Y001101D01*
X004262Y001040D01*
X004211Y000970D01*
X004193Y000935D01*
X004165Y001004D01*
X004004Y001165D01*
X003795Y001251D01*
X003568Y001251D01*
X003525Y001234D01*
X003267Y001491D01*
X003431Y001491D01*
X003431Y001931D01*
X002991Y001931D01*
X002991Y001767D01*
X002919Y001840D01*
X002840Y001919D01*
X002737Y001961D01*
X001237Y001961D01*
X001187Y001961D01*
X001191Y001970D01*
X001218Y002053D01*
X001231Y002138D01*
X001231Y002161D01*
X000702Y002161D01*
X000702Y002201D01*
X001231Y002201D01*
X001231Y002225D01*
X001218Y002310D01*
X001191Y002393D01*
X001152Y002470D01*
X001101Y002540D01*
X001040Y002601D01*
X000970Y002652D01*
X000935Y002669D01*
X001004Y002698D01*
X001165Y002859D01*
X001182Y002901D01*
X003065Y002901D01*
X003523Y002444D01*
X003626Y002401D01*
X003737Y002401D01*
X006506Y002401D01*
X006065Y001961D01*
X004891Y001961D01*
X004891Y002122D01*
X004622Y002391D01*
X004241Y002391D01*
X003971Y002122D01*
X003971Y001741D01*
X004241Y001471D01*
X004495Y001471D01*
X004523Y001444D01*
X004626Y001401D01*
X004737Y001401D01*
X006237Y001401D01*
X006340Y001444D01*
X006419Y001523D01*
X006797Y001901D01*
X008051Y001901D01*
X008161Y001791D01*
X008330Y001721D01*
X009033Y001721D01*
X009202Y001791D01*
X009331Y001921D01*
X009401Y002090D01*
X009401Y002273D01*
X009333Y002437D01*
X010297Y003401D01*
X010455Y003401D01*
X010478Y003378D01*
X010610Y003323D01*
X010753Y003323D01*
X010884Y003378D01*
X010985Y003478D01*
X011040Y003610D01*
X011040Y003753D01*
X010985Y003884D01*
X010884Y003985D01*
X010753Y004040D01*
X010610Y004040D01*
X010478Y003985D01*
X010455Y003961D01*
X010126Y003961D01*
X010023Y003919D01*
X009944Y003840D01*
X009394Y003290D01*
X009331Y003442D01*
X009202Y003571D01*
X009033Y003641D01*
X008330Y003641D01*
X008161Y003571D01*
X008051Y003461D01*
X007857Y003461D01*
X008180Y003784D01*
X008330Y003721D01*
X009033Y003721D01*
X009202Y003791D01*
X009331Y003921D01*
X009401Y004090D01*
X009401Y004273D01*
X009331Y004442D01*
X009202Y004571D01*
X009033Y004641D01*
X008330Y004641D01*
X008161Y004571D01*
X008031Y004442D01*
X008021Y004417D01*
X007944Y004340D01*
X007565Y003961D01*
X005961Y003961D01*
X005961Y005737D01*
X005919Y005840D01*
X005840Y005919D01*
X005340Y006419D01*
X005237Y006461D01*
X005126Y006461D01*
X001182Y006461D01*
X001165Y006504D01*
X001004Y006665D01*
X000964Y006681D01*
X001004Y006698D01*
X001165Y006859D01*
X001182Y006901D01*
X006126Y006901D01*
X006237Y006901D01*
X006340Y006944D01*
X007297Y007901D01*
X008051Y007901D01*
X008161Y007791D01*
X008330Y007721D01*
X009033Y007721D01*
X009202Y007791D01*
X009331Y007921D01*
X009401Y008090D01*
X009401Y008273D01*
X009331Y008442D01*
X009202Y008571D01*
X009033Y008641D01*
X008330Y008641D01*
X008161Y008571D01*
X008051Y008461D01*
X007126Y008461D01*
X007023Y008419D01*
X006944Y008340D01*
X006065Y007461D01*
X001182Y007461D01*
X001165Y007504D01*
X001004Y007665D01*
X000964Y007681D01*
X001004Y007698D01*
X001165Y007859D01*
X001182Y007901D01*
X006126Y007901D01*
X006237Y007901D01*
X006340Y007944D01*
X007297Y008901D01*
X008051Y008901D01*
X008161Y008791D01*
X008330Y008721D01*
X009033Y008721D01*
X009202Y008791D01*
X009331Y008921D01*
X009401Y009090D01*
X009401Y009273D01*
X009331Y009442D01*
X009202Y009571D01*
X009033Y009641D01*
X008330Y009641D01*
X008161Y009571D01*
X008051Y009461D01*
X007126Y009461D01*
X007023Y009419D01*
X006944Y009340D01*
X006065Y008461D01*
X001182Y008461D01*
X001165Y008504D01*
X001057Y008611D01*
X001134Y008611D01*
X001251Y008729D01*
X001251Y008901D01*
X005455Y008901D01*
X005478Y008878D01*
X005610Y008823D01*
X005753Y008823D01*
X005884Y008878D01*
X005985Y008978D01*
X006040Y009110D01*
X006040Y009144D01*
X006797Y009901D01*
X008051Y009901D01*
X008161Y009791D01*
X008330Y009721D01*
X009033Y009721D01*
X009202Y009791D01*
X009331Y009921D01*
X009401Y010090D01*
X009401Y010273D01*
X009331Y010442D01*
X009202Y010571D01*
X009033Y010641D01*
X008330Y010641D01*
X008161Y010571D01*
X008051Y010461D01*
X006626Y010461D01*
X006523Y010419D01*
X006444Y010340D01*
X005644Y009540D01*
X005610Y009540D01*
X005478Y009485D01*
X005455Y009461D01*
X002737Y009461D01*
X002891Y009616D01*
X002891Y009997D01*
X002622Y010266D01*
X002241Y010266D01*
X001971Y009997D01*
X001971Y009616D01*
X002126Y009461D01*
X001251Y009461D01*
X001251Y009634D01*
X001134Y009751D01*
X000381Y009751D01*
X000381Y010689D01*
X000568Y010611D01*
X000795Y010611D01*
X001004Y010698D01*
X001165Y010859D01*
X001182Y010901D01*
X004955Y010901D01*
X004978Y010878D01*
X005110Y010823D01*
X005253Y010823D01*
X005384Y010878D01*
X005408Y010901D01*
X008051Y010901D01*
X008161Y010791D01*
X008330Y010721D01*
X009033Y010721D01*
X009202Y010791D01*
X009331Y010921D01*
X009401Y011090D01*
X009401Y011273D01*
X009331Y011442D01*
X009202Y011571D01*
X009033Y011641D01*
X008330Y011641D01*
X008161Y011571D01*
X008051Y011461D01*
X005408Y011461D01*
X005384Y011485D01*
X005253Y011540D01*
X005110Y011540D01*
X004978Y011485D01*
X004955Y011461D01*
X001182Y011461D01*
X001165Y011504D01*
X001004Y011665D01*
X000964Y011681D01*
X001004Y011698D01*
X001165Y011859D01*
X001182Y011901D01*
X008051Y011901D01*
X008161Y011791D01*
X008330Y011721D01*
X009033Y011721D01*
X009202Y011791D01*
X009331Y011921D01*
X009394Y012073D01*
X009401Y012065D01*
X009401Y009237D01*
X009401Y009126D01*
X009444Y009023D01*
X011030Y007437D01*
X010961Y007273D01*
X010961Y007090D01*
X011031Y006921D01*
X011161Y006791D01*
X011330Y006721D01*
X012033Y006721D01*
X012202Y006791D01*
X012331Y006921D01*
X012401Y007090D01*
X012401Y007273D01*
X012331Y007442D01*
X012202Y007571D01*
X012033Y007641D01*
X011617Y007641D01*
X011537Y007721D01*
X012033Y007721D01*
X012202Y007791D01*
X012331Y007921D01*
X012401Y008090D01*
X012401Y008273D01*
X012331Y008442D01*
X012202Y008571D01*
X012033Y008641D01*
X011617Y008641D01*
X011537Y008721D01*
X012033Y008721D01*
X012202Y008791D01*
X012331Y008921D01*
X012401Y009090D01*
X012401Y009273D01*
X012331Y009442D01*
X012202Y009571D01*
X012033Y009641D01*
X011330Y009641D01*
X011161Y009571D01*
X011031Y009442D01*
X010969Y009290D01*
X010461Y009797D01*
X010461Y013172D01*
X010465Y013217D01*
X010461Y013227D01*
X010461Y013237D01*
X010444Y013279D01*
X010429Y013323D01*
X010423Y013331D01*
X010419Y013340D01*
X010387Y013372D01*
X010356Y013407D01*
X010347Y013412D01*
X010340Y013419D01*
X010298Y013436D01*
X009347Y013912D01*
X009340Y013919D01*
X009332Y013922D01*
X009401Y014133D02*
X010961Y014133D01*
X010969Y014292D02*
X009394Y014292D01*
X009323Y014450D02*
X011040Y014450D01*
X011251Y014609D02*
X009111Y014609D01*
X009229Y014767D02*
X011401Y014767D01*
X011401Y014926D02*
X009683Y014926D01*
X009779Y015084D02*
X011401Y015084D01*
X011401Y015243D02*
X010365Y015243D01*
X010364Y015241D02*
X010621Y015499D01*
X010621Y015681D01*
X010182Y015681D01*
X010182Y015682D01*
X010181Y015682D01*
X010181Y016121D01*
X009999Y016121D01*
X009741Y015864D01*
X009741Y015682D01*
X010181Y015682D01*
X010181Y015681D01*
X009741Y015681D01*
X009741Y015499D01*
X009999Y015241D01*
X010181Y015241D01*
X010181Y015681D01*
X010182Y015681D01*
X010182Y015241D01*
X010364Y015241D01*
X010182Y015243D02*
X010181Y015243D01*
X010181Y015402D02*
X010182Y015402D01*
X010181Y015560D02*
X010182Y015560D01*
X010182Y015682D02*
X010621Y015682D01*
X010621Y015864D01*
X010364Y016121D01*
X010182Y016121D01*
X010182Y015682D01*
X010181Y015719D02*
X010182Y015719D01*
X010181Y015877D02*
X010182Y015877D01*
X010181Y016036D02*
X010182Y016036D01*
X010449Y016036D02*
X011233Y016036D01*
X011401Y015877D02*
X010608Y015877D01*
X010621Y015719D02*
X011401Y015719D01*
X011401Y015560D02*
X010621Y015560D01*
X010524Y015402D02*
X011401Y015402D01*
X011961Y015402D02*
X013506Y015402D01*
X013404Y015243D02*
X011961Y015243D01*
X011961Y015084D02*
X013401Y015084D01*
X013401Y014926D02*
X011961Y014926D01*
X011961Y014767D02*
X013401Y014767D01*
X013401Y014609D02*
X012111Y014609D01*
X012227Y013816D02*
X013396Y013816D01*
X013499Y013621D02*
X013241Y013364D01*
X013241Y013182D01*
X012381Y013182D01*
X012381Y013216D01*
X012371Y013284D01*
X012349Y013350D01*
X012318Y013412D01*
X012277Y013468D01*
X012228Y013517D01*
X012172Y013558D01*
X012110Y013589D01*
X012044Y013611D01*
X011976Y013621D01*
X011682Y013621D01*
X011682Y013182D01*
X011681Y013182D01*
X011681Y013621D01*
X011387Y013621D01*
X011318Y013611D01*
X011252Y013589D01*
X011191Y013558D01*
X011135Y013517D01*
X011086Y013468D01*
X011045Y013412D01*
X011014Y013350D01*
X010992Y013284D01*
X010981Y013216D01*
X010981Y013182D01*
X010462Y013182D01*
X010461Y013023D02*
X011010Y013023D01*
X011014Y013012D02*
X011045Y012951D01*
X011086Y012895D01*
X011135Y012846D01*
X011191Y012805D01*
X011252Y012774D01*
X011318Y012752D01*
X011387Y012741D01*
X011681Y012741D01*
X011681Y013181D01*
X011682Y013181D01*
X011682Y013182D01*
X011681Y013182D01*
X011681Y013181D01*
X010981Y013181D01*
X010981Y013147D01*
X010992Y013078D01*
X011014Y013012D01*
X010981Y013182D02*
X011681Y013182D01*
X011682Y013182D02*
X012381Y013182D01*
X012381Y013181D02*
X011682Y013181D01*
X011682Y012741D01*
X011976Y012741D01*
X012044Y012752D01*
X012110Y012774D01*
X012172Y012805D01*
X012228Y012846D01*
X012277Y012895D01*
X012318Y012951D01*
X012349Y013012D01*
X012371Y013078D01*
X012381Y013147D01*
X012381Y013181D01*
X012353Y013023D02*
X013241Y013023D01*
X013241Y012999D02*
X013499Y012741D01*
X013681Y012741D01*
X013681Y013181D01*
X013241Y013181D01*
X013241Y012999D01*
X013241Y013182D02*
X013681Y013182D01*
X013682Y013182D01*
X013681Y013182D01*
X013681Y013621D01*
X013499Y013621D01*
X013377Y013499D02*
X012246Y013499D01*
X012352Y013341D02*
X013241Y013341D01*
X013376Y012865D02*
X012247Y012865D01*
X012226Y012548D02*
X017349Y012548D01*
X017323Y012610D02*
X017378Y012478D01*
X017401Y012455D01*
X017401Y010408D01*
X017378Y010384D01*
X017323Y010253D01*
X017323Y010110D01*
X017378Y009978D01*
X017478Y009878D01*
X017610Y009823D01*
X017753Y009823D01*
X017884Y009878D01*
X017985Y009978D01*
X018040Y010110D01*
X018040Y010253D01*
X017985Y010384D01*
X017961Y010408D01*
X017961Y012455D01*
X017985Y012478D01*
X018040Y012610D01*
X018040Y012753D01*
X017985Y012884D01*
X017884Y012985D01*
X017753Y013040D01*
X017610Y013040D01*
X017478Y012985D01*
X017378Y012884D01*
X017323Y012753D01*
X017323Y012610D01*
X017323Y012706D02*
X010461Y012706D01*
X010461Y012548D02*
X011137Y012548D01*
X011010Y012389D02*
X010461Y012389D01*
X010461Y012231D02*
X010961Y012231D01*
X010969Y012072D02*
X010461Y012072D01*
X010461Y011914D02*
X011039Y011914D01*
X011249Y011755D02*
X010461Y011755D01*
X010461Y011597D02*
X011222Y011597D01*
X011030Y011438D02*
X010461Y011438D01*
X010461Y011279D02*
X010964Y011279D01*
X010961Y011121D02*
X010461Y011121D01*
X010461Y010962D02*
X011014Y010962D01*
X011148Y010804D02*
X010461Y010804D01*
X010461Y010645D02*
X012822Y010645D01*
X012980Y010487D02*
X012287Y010487D01*
X012431Y010328D02*
X013139Y010328D01*
X013297Y010170D02*
X012589Y010170D01*
X012748Y010011D02*
X013401Y010011D01*
X013401Y009853D02*
X012906Y009853D01*
X012961Y009694D02*
X013401Y009694D01*
X013401Y009535D02*
X012961Y009535D01*
X012961Y009377D02*
X013401Y009377D01*
X013401Y009218D02*
X012961Y009218D01*
X012961Y009060D02*
X013401Y009060D01*
X013401Y008901D02*
X012961Y008901D01*
X012961Y008743D02*
X013401Y008743D01*
X013419Y008584D02*
X012961Y008584D01*
X012961Y008426D02*
X013541Y008426D01*
X013700Y008267D02*
X012992Y008267D01*
X013150Y008109D02*
X013858Y008109D01*
X014017Y007950D02*
X013309Y007950D01*
X013467Y007791D02*
X018765Y007791D01*
X018827Y007633D02*
X013626Y007633D01*
X013784Y007474D02*
X016968Y007474D01*
X017181Y007181D02*
X019181Y007181D01*
X018716Y006840D02*
X017294Y006840D01*
X017068Y006840D02*
X012251Y006840D01*
X012364Y006999D02*
X013468Y006999D01*
X013310Y007157D02*
X012401Y007157D01*
X012384Y007316D02*
X013151Y007316D01*
X012992Y007474D02*
X012299Y007474D01*
X012053Y007633D02*
X012834Y007633D01*
X012675Y007791D02*
X012202Y007791D01*
X012343Y007950D02*
X012517Y007950D01*
X012409Y008109D02*
X012401Y008109D01*
X012401Y008267D02*
X012401Y008267D01*
X012401Y008426D02*
X012338Y008426D01*
X012401Y008584D02*
X012171Y008584D01*
X012084Y008743D02*
X012401Y008743D01*
X012401Y008901D02*
X012312Y008901D01*
X012389Y009060D02*
X012401Y009060D01*
X012401Y009218D02*
X012401Y009218D01*
X012401Y009377D02*
X012358Y009377D01*
X012401Y009535D02*
X012238Y009535D01*
X012273Y009694D02*
X010565Y009694D01*
X010461Y009853D02*
X011100Y009853D01*
X010994Y010011D02*
X010461Y010011D01*
X010461Y010170D02*
X010961Y010170D01*
X010984Y010328D02*
X010461Y010328D01*
X010461Y010487D02*
X011076Y010487D01*
X011681Y010181D02*
X012181Y010181D01*
X012681Y009681D01*
X012681Y008181D01*
X013681Y007181D01*
X017181Y007181D01*
X017395Y007474D02*
X018686Y007474D01*
X018898Y006682D02*
X014114Y006682D01*
X014089Y006706D02*
X014206Y006589D01*
X014206Y005774D01*
X014089Y005656D01*
X013853Y005656D01*
X013875Y005649D01*
X013946Y005613D01*
X014010Y005567D01*
X014067Y005510D01*
X014113Y005446D01*
X014149Y005375D01*
X014174Y005300D01*
X014186Y005221D01*
X014186Y005182D01*
X013682Y005182D01*
X013682Y005181D01*
X014186Y005181D01*
X014186Y005142D01*
X014174Y005063D01*
X014149Y004988D01*
X014113Y004917D01*
X014067Y004852D01*
X014010Y004796D01*
X013946Y004749D01*
X013875Y004713D01*
X013800Y004689D01*
X013721Y004676D01*
X013682Y004676D01*
X013682Y005181D01*
X013681Y005181D01*
X013176Y005181D01*
X013176Y005142D01*
X013189Y005063D01*
X013213Y004988D01*
X013249Y004917D01*
X013296Y004852D01*
X013352Y004796D01*
X013417Y004749D01*
X013488Y004713D01*
X013563Y004689D01*
X013642Y004676D01*
X013681Y004676D01*
X013681Y005181D01*
X013681Y005182D01*
X013176Y005182D01*
X013176Y005221D01*
X013189Y005300D01*
X013213Y005375D01*
X013249Y005446D01*
X013296Y005510D01*
X013352Y005567D01*
X013417Y005613D01*
X013488Y005649D01*
X013509Y005656D01*
X013274Y005656D01*
X013156Y005774D01*
X013156Y005901D01*
X012312Y005901D01*
X012202Y005791D01*
X012033Y005721D01*
X011330Y005721D01*
X011161Y005791D01*
X011031Y005921D01*
X010961Y006090D01*
X010961Y006273D01*
X011031Y006442D01*
X011161Y006571D01*
X011330Y006641D01*
X012033Y006641D01*
X012202Y006571D01*
X012312Y006461D01*
X013156Y006461D01*
X013156Y006589D01*
X013274Y006706D01*
X014089Y006706D01*
X014206Y006523D02*
X016070Y006523D01*
X015869Y006365D02*
X014206Y006365D01*
X014206Y006206D02*
X015810Y006206D01*
X015652Y006048D02*
X014206Y006048D01*
X014206Y005889D02*
X015493Y005889D01*
X015334Y005730D02*
X014163Y005730D01*
X014003Y005572D02*
X015176Y005572D01*
X015017Y005413D02*
X014130Y005413D01*
X014181Y005255D02*
X014859Y005255D01*
X014700Y005096D02*
X014179Y005096D01*
X014124Y004938D02*
X014542Y004938D01*
X014383Y004779D02*
X013987Y004779D01*
X014225Y004621D02*
X012083Y004621D01*
X012044Y004752D02*
X012110Y004774D01*
X012172Y004805D01*
X012228Y004846D01*
X012277Y004895D01*
X012318Y004951D01*
X012349Y005012D01*
X012371Y005078D01*
X012381Y005147D01*
X012381Y005181D01*
X011682Y005181D01*
X011682Y005182D01*
X011681Y005182D01*
X011681Y005621D01*
X011387Y005621D01*
X011318Y005611D01*
X011252Y005589D01*
X011191Y005558D01*
X011135Y005517D01*
X011086Y005468D01*
X011045Y005412D01*
X011014Y005350D01*
X010992Y005284D01*
X010981Y005216D01*
X010981Y005182D01*
X011681Y005182D01*
X011681Y005181D01*
X011682Y005181D01*
X011682Y004741D01*
X011976Y004741D01*
X012044Y004752D01*
X012121Y004779D02*
X013376Y004779D01*
X013239Y004938D02*
X012308Y004938D01*
X012373Y005096D02*
X013184Y005096D01*
X013182Y005255D02*
X012375Y005255D01*
X012371Y005284D02*
X012381Y005216D01*
X012381Y005182D01*
X011682Y005182D01*
X011682Y005621D01*
X011976Y005621D01*
X012044Y005611D01*
X012110Y005589D01*
X012172Y005558D01*
X012228Y005517D01*
X012277Y005468D01*
X012318Y005412D01*
X012349Y005350D01*
X012371Y005284D01*
X012317Y005413D02*
X013233Y005413D01*
X013360Y005572D02*
X012144Y005572D01*
X012055Y005730D02*
X013200Y005730D01*
X013156Y005889D02*
X012299Y005889D01*
X012250Y006523D02*
X013156Y006523D01*
X013249Y006682D02*
X008077Y006682D01*
X008180Y006579D02*
X007840Y006919D01*
X007751Y006955D01*
X007751Y007134D01*
X007634Y007251D01*
X006729Y007251D01*
X006611Y007134D01*
X006611Y006229D01*
X006729Y006111D01*
X006838Y006111D01*
X006823Y006101D01*
X006762Y006040D01*
X006711Y005970D01*
X006672Y005893D01*
X006645Y005810D01*
X006631Y005725D01*
X006631Y005701D01*
X007161Y005701D01*
X007161Y005661D01*
X006631Y005661D01*
X006631Y005638D01*
X006645Y005553D01*
X006672Y005470D01*
X006711Y005393D01*
X006762Y005323D01*
X006823Y005262D01*
X006893Y005211D01*
X006928Y005193D01*
X006859Y005165D01*
X006698Y005004D01*
X006611Y004795D01*
X006611Y004568D01*
X006698Y004359D01*
X006859Y004198D01*
X007068Y004111D01*
X007295Y004111D01*
X007504Y004198D01*
X007665Y004359D01*
X007682Y004401D01*
X007737Y004401D01*
X007840Y004444D01*
X008180Y004784D01*
X008330Y004721D01*
X009033Y004721D01*
X009202Y004791D01*
X009331Y004921D01*
X009401Y005090D01*
X009401Y005273D01*
X009331Y005442D01*
X009202Y005571D01*
X009033Y005641D01*
X008330Y005641D01*
X008161Y005571D01*
X008031Y005442D01*
X008021Y005417D01*
X007944Y005340D01*
X007636Y005032D01*
X007504Y005165D01*
X007435Y005193D01*
X007470Y005211D01*
X007540Y005262D01*
X007601Y005323D01*
X007652Y005393D01*
X007691Y005470D01*
X007718Y005553D01*
X007731Y005638D01*
X007731Y005661D01*
X007202Y005661D01*
X007202Y005701D01*
X007731Y005701D01*
X007731Y005725D01*
X007718Y005810D01*
X007691Y005893D01*
X007652Y005970D01*
X007601Y006040D01*
X007540Y006101D01*
X007525Y006111D01*
X007634Y006111D01*
X007745Y006222D01*
X007944Y006023D01*
X008021Y005946D01*
X008031Y005921D01*
X008161Y005791D01*
X008330Y005721D01*
X009033Y005721D01*
X009202Y005791D01*
X009331Y005921D01*
X009401Y006090D01*
X009401Y006273D01*
X009331Y006442D01*
X009202Y006571D01*
X009033Y006641D01*
X008330Y006641D01*
X008180Y006579D01*
X008252Y006774D02*
X008191Y006805D01*
X008135Y006846D01*
X008086Y006895D01*
X008045Y006951D01*
X008014Y007012D01*
X007992Y007078D01*
X007981Y007147D01*
X007981Y007181D01*
X008681Y007181D01*
X008682Y007181D01*
X008682Y007182D01*
X008681Y007182D01*
X008681Y007621D01*
X008387Y007621D01*
X008318Y007611D01*
X008252Y007589D01*
X008191Y007558D01*
X008135Y007517D01*
X008086Y007468D01*
X008045Y007412D01*
X008014Y007350D01*
X007992Y007284D01*
X007981Y007216D01*
X007981Y007182D01*
X008681Y007182D01*
X008681Y007181D01*
X008681Y006741D01*
X008387Y006741D01*
X008318Y006752D01*
X008252Y006774D01*
X008142Y006840D02*
X007919Y006840D01*
X008021Y006999D02*
X007751Y006999D01*
X007728Y007157D02*
X007981Y007157D01*
X008002Y007316D02*
X006712Y007316D01*
X006634Y007157D02*
X006553Y007157D01*
X006611Y006999D02*
X006395Y006999D01*
X006611Y006840D02*
X001146Y006840D01*
X000964Y006682D02*
X006611Y006682D01*
X006611Y006523D02*
X001146Y006523D01*
X000681Y006181D02*
X005181Y006181D01*
X005681Y005681D01*
X005681Y003681D01*
X007681Y003681D01*
X008181Y004181D01*
X008681Y004181D01*
X008280Y004621D02*
X008017Y004621D01*
X008052Y004462D02*
X007858Y004462D01*
X007908Y004304D02*
X007610Y004304D01*
X007749Y004145D02*
X007376Y004145D01*
X007591Y003986D02*
X005961Y003986D01*
X005961Y004145D02*
X006987Y004145D01*
X006753Y004304D02*
X005961Y004304D01*
X005961Y004462D02*
X006655Y004462D01*
X006611Y004621D02*
X005961Y004621D01*
X005961Y004779D02*
X006611Y004779D01*
X006671Y004938D02*
X005961Y004938D01*
X005961Y005096D02*
X006790Y005096D01*
X006833Y005255D02*
X005961Y005255D01*
X005961Y005413D02*
X006701Y005413D01*
X006642Y005572D02*
X005961Y005572D01*
X005961Y005730D02*
X006632Y005730D01*
X006671Y005889D02*
X005870Y005889D01*
X005711Y006048D02*
X006770Y006048D01*
X006634Y006206D02*
X005553Y006206D01*
X005394Y006365D02*
X006611Y006365D01*
X007181Y006681D02*
X007681Y006681D01*
X008181Y006181D01*
X008681Y006181D01*
X008308Y005730D02*
X007730Y005730D01*
X007721Y005572D02*
X008162Y005572D01*
X008017Y005413D02*
X007662Y005413D01*
X007530Y005255D02*
X007859Y005255D01*
X007700Y005096D02*
X007573Y005096D01*
X007681Y004681D02*
X007181Y004681D01*
X007681Y004681D02*
X008181Y005181D01*
X008681Y005181D01*
X009172Y004779D02*
X011242Y004779D01*
X011252Y004774D02*
X011318Y004752D01*
X011387Y004741D01*
X011681Y004741D01*
X011681Y005181D01*
X010981Y005181D01*
X010981Y005147D01*
X010992Y005078D01*
X011014Y005012D01*
X011045Y004951D01*
X011086Y004895D01*
X011135Y004846D01*
X011191Y004805D01*
X011252Y004774D01*
X011280Y004621D02*
X009083Y004621D01*
X009311Y004462D02*
X011052Y004462D01*
X010974Y004304D02*
X009389Y004304D01*
X009401Y004145D02*
X010961Y004145D01*
X011004Y003986D02*
X010881Y003986D01*
X011009Y003828D02*
X011124Y003828D01*
X011040Y003669D02*
X017773Y003669D01*
X017615Y003511D02*
X012262Y003511D01*
X012238Y003828D02*
X017932Y003828D01*
X018165Y003986D02*
X014382Y003986D01*
X014541Y004145D02*
X018483Y004145D01*
X018611Y004304D02*
X016954Y004304D01*
X016872Y004221D02*
X017141Y004491D01*
X017141Y004872D01*
X016872Y005141D01*
X016491Y005141D01*
X016221Y004872D01*
X016221Y004491D01*
X016491Y004221D01*
X016872Y004221D01*
X017113Y004462D02*
X018611Y004462D01*
X018611Y004621D02*
X017141Y004621D01*
X017141Y004779D02*
X019666Y004779D01*
X019666Y004938D02*
X017076Y004938D01*
X016917Y005096D02*
X019666Y005096D01*
X019666Y005255D02*
X015651Y005255D01*
X015809Y005413D02*
X019666Y005413D01*
X019666Y005572D02*
X015968Y005572D01*
X016126Y005730D02*
X018826Y005730D01*
X018686Y005889D02*
X016396Y005889D01*
X016181Y006181D02*
X019181Y006181D01*
X019537Y005730D02*
X019666Y005730D01*
X018717Y006523D02*
X016293Y006523D01*
X016181Y006181D02*
X014181Y004181D01*
X011681Y004181D01*
X011681Y004779D02*
X011682Y004779D01*
X011681Y004938D02*
X011682Y004938D01*
X011681Y005096D02*
X011682Y005096D01*
X011681Y005255D02*
X011682Y005255D01*
X011681Y005413D02*
X011682Y005413D01*
X011681Y005572D02*
X011682Y005572D01*
X011308Y005730D02*
X009055Y005730D01*
X009201Y005572D02*
X011219Y005572D01*
X011046Y005413D02*
X009343Y005413D01*
X009401Y005255D02*
X010988Y005255D01*
X010989Y005096D02*
X009401Y005096D01*
X009338Y004938D02*
X011055Y004938D01*
X011063Y005889D02*
X009299Y005889D01*
X009384Y006048D02*
X010979Y006048D01*
X010961Y006206D02*
X009401Y006206D01*
X009363Y006365D02*
X010999Y006365D01*
X011113Y006523D02*
X009250Y006523D01*
X009110Y006774D02*
X009044Y006752D01*
X008976Y006741D01*
X008682Y006741D01*
X008682Y007181D01*
X009381Y007181D01*
X009381Y007147D01*
X009371Y007078D01*
X009349Y007012D01*
X009318Y006951D01*
X009277Y006895D01*
X009228Y006846D01*
X009172Y006805D01*
X009110Y006774D01*
X009220Y006840D02*
X011112Y006840D01*
X010999Y006999D02*
X009342Y006999D01*
X009381Y007157D02*
X010961Y007157D01*
X010979Y007316D02*
X009360Y007316D01*
X009371Y007284D02*
X009349Y007350D01*
X009318Y007412D01*
X009277Y007468D01*
X009228Y007517D01*
X009172Y007558D01*
X009110Y007589D01*
X009044Y007611D01*
X008976Y007621D01*
X008682Y007621D01*
X008682Y007182D01*
X009381Y007182D01*
X009381Y007216D01*
X009371Y007284D01*
X009271Y007474D02*
X010992Y007474D01*
X010834Y007633D02*
X007029Y007633D01*
X007187Y007791D02*
X008161Y007791D01*
X008092Y007474D02*
X006870Y007474D01*
X006396Y007791D02*
X001098Y007791D01*
X001036Y007633D02*
X006237Y007633D01*
X006078Y007474D02*
X001177Y007474D01*
X000681Y007181D02*
X006181Y007181D01*
X007181Y008181D01*
X008681Y008181D01*
X009171Y008584D02*
X009883Y008584D01*
X010041Y008426D02*
X009338Y008426D01*
X009401Y008267D02*
X010200Y008267D01*
X010358Y008109D02*
X009401Y008109D01*
X009343Y007950D02*
X010517Y007950D01*
X010675Y007791D02*
X009202Y007791D01*
X008681Y007474D02*
X008682Y007474D01*
X008681Y007316D02*
X008682Y007316D01*
X008681Y007157D02*
X008682Y007157D01*
X008681Y006999D02*
X008682Y006999D01*
X008681Y006840D02*
X008682Y006840D01*
X007919Y006048D02*
X007593Y006048D01*
X007692Y005889D02*
X008063Y005889D01*
X007761Y006206D02*
X007729Y006206D01*
X008175Y004779D02*
X008191Y004779D01*
X008065Y003669D02*
X009773Y003669D01*
X009615Y003511D02*
X009262Y003511D01*
X009369Y003352D02*
X009456Y003352D01*
X009238Y003828D02*
X009932Y003828D01*
X010181Y003681D02*
X010681Y003681D01*
X010999Y003511D02*
X011100Y003511D01*
X010994Y003352D02*
X010823Y003352D01*
X010961Y003194D02*
X010090Y003194D01*
X010248Y003352D02*
X010539Y003352D01*
X010181Y003681D02*
X008681Y002181D01*
X006681Y002181D01*
X006181Y001681D01*
X004681Y001681D01*
X004431Y001931D01*
X004104Y001608D02*
X003731Y001608D01*
X003614Y001491D02*
X003871Y001749D01*
X003871Y001931D01*
X003432Y001931D01*
X003432Y001932D01*
X003431Y001932D01*
X003431Y002371D01*
X003249Y002371D01*
X002991Y002114D01*
X002991Y001932D01*
X003431Y001932D01*
X003431Y001931D01*
X003432Y001931D01*
X003432Y001491D01*
X003614Y001491D01*
X003432Y001608D02*
X003431Y001608D01*
X003431Y001767D02*
X003432Y001767D01*
X003431Y001925D02*
X003432Y001925D01*
X003432Y001932D02*
X003871Y001932D01*
X003871Y002114D01*
X003614Y002371D01*
X003432Y002371D01*
X003432Y001932D01*
X003431Y002084D02*
X003432Y002084D01*
X003431Y002242D02*
X003432Y002242D01*
X003743Y002242D02*
X004092Y002242D01*
X003971Y002084D02*
X003871Y002084D01*
X003871Y001925D02*
X003971Y001925D01*
X003971Y001767D02*
X003871Y001767D01*
X003467Y001291D02*
X007969Y001291D01*
X007961Y001273D02*
X007961Y001090D01*
X008031Y000921D01*
X008161Y000791D01*
X008330Y000721D01*
X009033Y000721D01*
X009202Y000791D01*
X009331Y000921D01*
X009401Y001090D01*
X009401Y001273D01*
X009331Y001442D01*
X009202Y001571D01*
X009033Y001641D01*
X008330Y001641D01*
X008161Y001571D01*
X008031Y001442D01*
X007961Y001273D01*
X007961Y001133D02*
X007036Y001133D01*
X007177Y000974D02*
X008009Y000974D01*
X008137Y000816D02*
X007243Y000816D01*
X007251Y000657D02*
X011810Y000657D01*
X011968Y000499D02*
X007223Y000499D01*
X006327Y001133D02*
X006036Y001133D01*
X006177Y000974D02*
X006186Y000974D01*
X006346Y001450D02*
X008039Y001450D01*
X008220Y001767D02*
X006663Y001767D01*
X006504Y001608D02*
X008250Y001608D01*
X009113Y001608D02*
X009324Y001608D01*
X009324Y001450D02*
X009406Y001450D01*
X009394Y001291D02*
X009676Y001291D01*
X009834Y001133D02*
X009401Y001133D01*
X009353Y000974D02*
X009993Y000974D01*
X010181Y001181D02*
X009681Y001681D01*
X009944Y001925D02*
X011030Y001925D01*
X010964Y002084D02*
X009399Y002084D01*
X009401Y002242D02*
X010961Y002242D01*
X011015Y002401D02*
X009348Y002401D01*
X009455Y002560D02*
X011149Y002560D01*
X011076Y002877D02*
X009773Y002877D01*
X009931Y003035D02*
X010984Y003035D01*
X011681Y003181D02*
X017681Y003181D01*
X018181Y003681D01*
X019181Y004181D01*
X018705Y003511D02*
X018466Y003511D01*
X018635Y003352D02*
X018248Y003352D01*
X018090Y003194D02*
X018611Y003194D01*
X018625Y003035D02*
X017931Y003035D01*
X018322Y002718D02*
X009614Y002718D01*
X009419Y001925D02*
X009333Y001925D01*
X009329Y001767D02*
X009143Y001767D01*
X010034Y001767D02*
X011220Y001767D01*
X011250Y001608D02*
X010150Y001608D01*
X010181Y001181D02*
X011681Y001181D01*
X012181Y000681D01*
X018681Y000681D01*
X019181Y001181D01*
X019405Y000657D02*
X019666Y000657D01*
X019666Y000499D02*
X018894Y000499D01*
X018578Y000974D02*
X012353Y000974D01*
X012401Y001133D02*
X018611Y001133D01*
X018611Y001291D02*
X016942Y001291D01*
X016681Y001681D02*
X017681Y001681D01*
X019181Y003181D01*
X018481Y002877D02*
X012287Y002877D01*
X012214Y002560D02*
X018164Y002560D01*
X018005Y002401D02*
X012358Y002401D01*
X012516Y002242D02*
X017847Y002242D01*
X017688Y002084D02*
X016929Y002084D01*
X016681Y001681D02*
X012681Y001681D01*
X012181Y002181D01*
X011681Y002181D01*
X012143Y001767D02*
X012200Y001767D01*
X012113Y001608D02*
X012359Y001608D01*
X012324Y001450D02*
X012517Y001450D01*
X012394Y001291D02*
X016421Y001291D01*
X016433Y002084D02*
X012675Y002084D01*
X011137Y000816D02*
X009226Y000816D01*
X007181Y002681D02*
X003681Y002681D01*
X003181Y003181D01*
X000681Y003181D01*
X001024Y002718D02*
X003249Y002718D01*
X003407Y002560D02*
X001081Y002560D01*
X001187Y002401D02*
X006505Y002401D01*
X006347Y002242D02*
X004771Y002242D01*
X004891Y002084D02*
X006188Y002084D01*
X005327Y001133D02*
X004996Y001133D01*
X005149Y000974D02*
X005186Y000974D01*
X004701Y000974D02*
X004661Y000974D01*
X004661Y000816D02*
X004701Y000816D01*
X004701Y001133D02*
X004661Y001133D01*
X004367Y001133D02*
X004036Y001133D01*
X004177Y000974D02*
X004214Y000974D01*
X003681Y000681D02*
X002681Y001681D01*
X001181Y001681D01*
X000681Y001181D01*
X001223Y002084D02*
X002991Y002084D01*
X002991Y001925D02*
X002824Y001925D01*
X002919Y001840D02*
X002919Y001840D01*
X003120Y002242D02*
X001229Y002242D01*
X001172Y002877D02*
X003090Y002877D01*
X004181Y004181D02*
X005181Y003181D01*
X008681Y003181D01*
X008100Y003511D02*
X007907Y003511D01*
X009359Y003986D02*
X010481Y003986D01*
X012311Y004462D02*
X014066Y004462D01*
X013682Y004779D02*
X013681Y004779D01*
X013681Y004938D02*
X013682Y004938D01*
X013681Y005096D02*
X013682Y005096D01*
X013681Y006181D02*
X011681Y006181D01*
X011681Y007181D02*
X009681Y009181D01*
X009681Y012181D01*
X009181Y012681D01*
X004181Y012681D01*
X005181Y011181D02*
X008681Y011181D01*
X009141Y011597D02*
X009401Y011597D01*
X009401Y011755D02*
X009114Y011755D01*
X009324Y011914D02*
X009401Y011914D01*
X009394Y012072D02*
X009395Y012072D01*
X009401Y011438D02*
X009333Y011438D01*
X009399Y011279D02*
X009401Y011279D01*
X009401Y011121D02*
X009401Y011121D01*
X009401Y010962D02*
X009349Y010962D01*
X009401Y010804D02*
X009214Y010804D01*
X009401Y010645D02*
X000877Y010645D01*
X001110Y010804D02*
X008148Y010804D01*
X008076Y010487D02*
X000381Y010487D01*
X000381Y010645D02*
X000486Y010645D01*
X000381Y010328D02*
X006432Y010328D01*
X006274Y010170D02*
X002719Y010170D01*
X002877Y010011D02*
X006115Y010011D01*
X005957Y009853D02*
X002891Y009853D01*
X002891Y009694D02*
X005798Y009694D01*
X005600Y009535D02*
X002811Y009535D01*
X002052Y009535D02*
X001251Y009535D01*
X001192Y009694D02*
X001971Y009694D01*
X001971Y009853D02*
X000381Y009853D01*
X000381Y010011D02*
X001986Y010011D01*
X002144Y010170D02*
X000381Y010170D01*
X000681Y009181D02*
X005681Y009181D01*
X006681Y010181D01*
X008681Y010181D01*
X008100Y009853D02*
X006749Y009853D01*
X006590Y009694D02*
X009401Y009694D01*
X009401Y009535D02*
X009238Y009535D01*
X009358Y009377D02*
X009401Y009377D01*
X009401Y009218D02*
X009401Y009218D01*
X009389Y009060D02*
X009429Y009060D01*
X009312Y008901D02*
X009566Y008901D01*
X009724Y008743D02*
X009084Y008743D01*
X008681Y009181D02*
X007181Y009181D01*
X006181Y008181D01*
X000681Y008181D01*
X001085Y008584D02*
X006188Y008584D01*
X006347Y008743D02*
X001251Y008743D01*
X001251Y008901D02*
X005455Y008901D01*
X005908Y008901D02*
X006505Y008901D01*
X006664Y009060D02*
X006019Y009060D01*
X006114Y009218D02*
X006822Y009218D01*
X006981Y009377D02*
X006273Y009377D01*
X006431Y009535D02*
X008125Y009535D01*
X008051Y008901D02*
X007297Y008901D01*
X007139Y008743D02*
X008278Y008743D01*
X008192Y008584D02*
X006980Y008584D01*
X007040Y008426D02*
X006822Y008426D01*
X006871Y008267D02*
X006663Y008267D01*
X006713Y008109D02*
X006505Y008109D01*
X006554Y007950D02*
X006346Y007950D01*
X003681Y005681D02*
X004181Y005181D01*
X003681Y005681D02*
X002181Y005681D01*
X000681Y004181D02*
X004181Y004181D01*
X004517Y001450D02*
X003309Y001450D01*
X010882Y009377D02*
X011005Y009377D01*
X011125Y009535D02*
X010723Y009535D01*
X010181Y009681D02*
X010181Y013181D01*
X009181Y013681D01*
X007681Y013681D01*
X007181Y013181D02*
X008681Y013181D01*
X008681Y012181D02*
X000681Y012181D01*
X001061Y011755D02*
X008249Y011755D01*
X008222Y011597D02*
X001072Y011597D01*
X000681Y011181D02*
X005181Y011181D01*
X007181Y013181D02*
X006681Y013681D01*
X002181Y013681D01*
X001681Y013181D01*
X000681Y013181D01*
X000681Y014181D02*
X003181Y014181D01*
X008681Y014181D01*
X008251Y014609D02*
X002662Y014609D01*
X002681Y014931D02*
X002181Y014681D01*
X001919Y014926D02*
X000381Y014926D01*
X000381Y015084D02*
X002362Y015084D01*
X002681Y014931D02*
X008931Y014931D01*
X009431Y015181D01*
X009145Y015402D02*
X000381Y015402D01*
X000381Y015560D02*
X009741Y015560D01*
X009741Y015719D02*
X000381Y015719D01*
X000381Y015877D02*
X009755Y015877D01*
X009914Y016036D02*
X000381Y016036D01*
X000381Y016194D02*
X001528Y016194D01*
X001502Y016207D02*
X001563Y016176D01*
X001629Y016155D01*
X001697Y016144D01*
X001731Y016144D01*
X001731Y016581D01*
X001294Y016581D01*
X001294Y016547D01*
X001305Y016479D01*
X001326Y016413D01*
X001357Y016352D01*
X001398Y016296D01*
X001446Y016248D01*
X001502Y016207D01*
X001357Y016353D02*
X000381Y016353D01*
X000381Y016511D02*
X001300Y016511D01*
X001294Y016582D02*
X001731Y016582D01*
X001731Y016581D01*
X001732Y016581D01*
X001732Y016144D01*
X001766Y016144D01*
X001834Y016155D01*
X001899Y016176D01*
X001961Y016207D01*
X002016Y016248D01*
X002065Y016296D01*
X002067Y016299D01*
X002172Y016194D01*
X002340Y016124D01*
X002522Y016124D01*
X002691Y016194D01*
X002842Y016194D01*
X003010Y016124D01*
X003192Y016124D01*
X003361Y016194D01*
X008046Y016194D01*
X008181Y016194D02*
X008182Y016194D01*
X008182Y016176D02*
X008221Y016176D01*
X008300Y016189D01*
X008375Y016213D01*
X008446Y016249D01*
X008510Y016296D01*
X008567Y016352D01*
X008613Y016417D01*
X008649Y016488D01*
X008674Y016563D01*
X008686Y016642D01*
X008686Y016681D01*
X008182Y016681D01*
X008182Y016176D01*
X008316Y016194D02*
X010757Y016194D01*
X009859Y016353D02*
X008567Y016353D01*
X008657Y016511D02*
X009721Y016511D01*
X009721Y016670D02*
X008686Y016670D01*
X008665Y016828D02*
X009721Y016828D01*
X009716Y016987D02*
X008584Y016987D01*
X008383Y017146D02*
X009636Y017146D01*
X009557Y017304D02*
X008706Y017304D01*
X008181Y017681D02*
X006181Y017681D01*
X005782Y018181D02*
X006581Y018181D01*
X006765Y018258D01*
X006905Y018398D01*
X006981Y018582D01*
X006981Y018585D01*
X007297Y018901D01*
X007311Y018901D01*
X007491Y018721D01*
X007872Y018721D01*
X008141Y018991D01*
X008141Y019372D01*
X007872Y019641D01*
X007491Y019641D01*
X007311Y019461D01*
X007126Y019461D01*
X007023Y019419D01*
X006944Y019340D01*
X006726Y019121D01*
X006581Y019181D01*
X005782Y019181D01*
X005598Y019105D01*
X005458Y018965D01*
X005456Y018961D01*
X005237Y018961D01*
X005126Y018961D01*
X005023Y018919D01*
X004626Y018522D01*
X004629Y018530D01*
X004629Y018833D01*
X004514Y019112D01*
X004299Y019327D01*
X004020Y019442D01*
X003717Y019442D01*
X003437Y019327D01*
X003223Y019112D01*
X003107Y018833D01*
X003107Y018530D01*
X003223Y018250D01*
X003437Y018036D01*
X003717Y017920D01*
X004020Y017920D01*
X004028Y017924D01*
X004023Y017919D01*
X003944Y017840D01*
X003901Y017737D01*
X003901Y017297D01*
X003565Y016961D01*
X003368Y016961D01*
X003361Y016969D01*
X003215Y017029D01*
X003249Y017110D01*
X003249Y017292D01*
X003179Y017461D01*
X003051Y017589D01*
X002882Y017659D01*
X002700Y017659D01*
X002532Y017589D01*
X002446Y017503D01*
X002361Y017589D01*
X002192Y017659D01*
X002010Y017659D01*
X001842Y017589D01*
X001714Y017461D01*
X001644Y017292D01*
X001644Y017110D01*
X001683Y017017D01*
X001629Y017008D01*
X001563Y016987D01*
X001502Y016956D01*
X001446Y016915D01*
X001398Y016866D01*
X001357Y016811D01*
X001326Y016749D01*
X001305Y016684D01*
X001294Y016616D01*
X001294Y016582D01*
X001303Y016670D02*
X000381Y016670D01*
X000381Y016828D02*
X001370Y016828D01*
X001564Y016987D02*
X000381Y016987D01*
X000381Y017146D02*
X001644Y017146D01*
X001649Y017304D02*
X000381Y017304D01*
X000381Y017463D02*
X001716Y017463D01*
X001919Y017621D02*
X000381Y017621D01*
X000381Y017780D02*
X003919Y017780D01*
X003901Y017621D02*
X002973Y017621D01*
X003177Y017463D02*
X003901Y017463D01*
X003901Y017304D02*
X003244Y017304D01*
X003249Y017146D02*
X003750Y017146D01*
X003591Y016987D02*
X003318Y016987D01*
X003101Y016581D02*
X002951Y016681D01*
X003681Y016681D01*
X004181Y017181D01*
X004181Y017681D01*
X005181Y018681D01*
X006181Y018681D01*
X006681Y018681D01*
X007181Y019181D01*
X007681Y019181D01*
X008040Y018890D02*
X008351Y018890D01*
X008241Y018999D02*
X008241Y019181D01*
X008681Y019181D01*
X008682Y019181D01*
X008682Y019182D01*
X009121Y019182D01*
X009121Y019364D01*
X008864Y019621D01*
X008682Y019621D01*
X008682Y019182D01*
X008681Y019182D01*
X008681Y019621D01*
X008499Y019621D01*
X008241Y019364D01*
X008241Y019182D01*
X008681Y019182D01*
X008681Y019181D01*
X008681Y018741D01*
X008499Y018741D01*
X008241Y018999D01*
X008241Y019048D02*
X008141Y019048D01*
X008141Y019207D02*
X008241Y019207D01*
X008243Y019365D02*
X008141Y019365D01*
X007990Y019524D02*
X008401Y019524D01*
X008681Y019524D02*
X008682Y019524D01*
X008681Y019365D02*
X008682Y019365D01*
X008681Y019207D02*
X008682Y019207D01*
X008682Y019181D02*
X009121Y019181D01*
X009121Y018999D01*
X008864Y018741D01*
X008682Y018741D01*
X008682Y019181D01*
X008681Y019048D02*
X008682Y019048D01*
X008681Y018890D02*
X008682Y018890D01*
X009012Y018890D02*
X010489Y018890D01*
X010491Y018891D02*
X010221Y018622D01*
X010221Y018241D01*
X010491Y017971D01*
X010872Y017971D01*
X011141Y018241D01*
X011141Y018622D01*
X010872Y018891D01*
X010491Y018891D01*
X010499Y018991D02*
X010681Y018991D01*
X010681Y019431D01*
X010241Y019431D01*
X010241Y019249D01*
X010499Y018991D01*
X010443Y019048D02*
X009121Y019048D01*
X009121Y019207D02*
X010284Y019207D01*
X010241Y019365D02*
X009120Y019365D01*
X008961Y019524D02*
X010241Y019524D01*
X010682Y019431D02*
X010682Y018991D01*
X010864Y018991D01*
X011121Y019249D01*
X011121Y019431D01*
X010682Y019431D01*
X010681Y019365D02*
X010682Y019365D01*
X010681Y019207D02*
X010682Y019207D01*
X010681Y019048D02*
X010682Y019048D01*
X010920Y019048D02*
X013898Y019048D01*
X013739Y018890D02*
X010874Y018890D01*
X011032Y018731D02*
X013721Y018731D01*
X013721Y018572D02*
X011141Y018572D01*
X011141Y018414D02*
X013798Y018414D01*
X013957Y018255D02*
X011141Y018255D01*
X010997Y018097D02*
X018541Y018097D01*
X018582Y018255D02*
X014406Y018255D01*
X014767Y018414D02*
X015176Y018414D01*
X015111Y018572D02*
X014968Y018572D01*
X014681Y018681D02*
X015181Y019181D01*
X015681Y018931D01*
X016251Y019365D02*
X016309Y019365D01*
X016187Y018414D02*
X016441Y018414D01*
X014966Y019365D02*
X011121Y019365D01*
X011121Y019524D02*
X019666Y019524D01*
X014811Y019207D02*
X011079Y019207D01*
X010330Y018731D02*
X007881Y018731D01*
X007481Y018731D02*
X007127Y018731D01*
X006977Y018572D02*
X010221Y018572D01*
X010221Y018414D02*
X006912Y018414D01*
X006759Y018255D02*
X010221Y018255D01*
X010365Y018097D02*
X008699Y018097D01*
X007664Y018097D02*
X006773Y018097D01*
X007285Y018890D02*
X007323Y018890D01*
X006969Y019365D02*
X004206Y019365D01*
X004419Y019207D02*
X006811Y019207D01*
X007373Y019524D02*
X000381Y019524D01*
X000381Y019365D02*
X000657Y019365D01*
X000443Y019207D02*
X000381Y019207D01*
X001332Y019365D02*
X003531Y019365D01*
X003317Y019207D02*
X001545Y019207D01*
X001666Y019048D02*
X003197Y019048D01*
X003131Y018890D02*
X001732Y018890D01*
X001755Y018731D02*
X003107Y018731D01*
X003107Y018572D02*
X001755Y018572D01*
X001707Y018414D02*
X003155Y018414D01*
X003221Y018255D02*
X001642Y018255D01*
X001486Y018097D02*
X003377Y018097D01*
X003674Y017938D02*
X001189Y017938D01*
X000800Y017938D02*
X000381Y017938D01*
X000381Y018097D02*
X000503Y018097D01*
X001731Y016511D02*
X001732Y016511D01*
X001731Y016353D02*
X001732Y016353D01*
X001731Y016194D02*
X001732Y016194D01*
X001935Y016194D02*
X002172Y016194D01*
X002691Y016194D02*
X002766Y016269D01*
X002842Y016194D01*
X003361Y016194D02*
X003489Y016322D01*
X003522Y016401D01*
X003737Y016401D01*
X003840Y016444D01*
X003919Y016523D01*
X004419Y017023D01*
X004461Y017126D01*
X004461Y017237D01*
X004461Y017565D01*
X005297Y018401D01*
X005456Y018401D01*
X005458Y018398D01*
X005598Y018258D01*
X005782Y018181D01*
X005603Y018255D02*
X005151Y018255D01*
X004993Y018097D02*
X005590Y018097D01*
X005447Y017938D02*
X004834Y017938D01*
X004676Y017780D02*
X005381Y017780D01*
X005381Y017621D02*
X004517Y017621D01*
X004461Y017463D02*
X005431Y017463D01*
X005552Y017304D02*
X004461Y017304D01*
X004461Y017146D02*
X005757Y017146D01*
X005510Y016987D02*
X004383Y016987D01*
X004224Y016828D02*
X005424Y016828D01*
X005401Y016661D02*
X005401Y016644D01*
X005413Y016569D01*
X005437Y016497D01*
X005471Y016430D01*
X005515Y016369D01*
X005569Y016315D01*
X005630Y016271D01*
X005697Y016237D01*
X005769Y016213D01*
X005844Y016201D01*
X006161Y016201D01*
X006161Y016661D01*
X005401Y016661D01*
X005432Y016511D02*
X003907Y016511D01*
X004066Y016670D02*
X006161Y016670D01*
X006161Y016828D02*
X006201Y016828D01*
X006201Y016987D02*
X006161Y016987D01*
X006161Y017146D02*
X006201Y017146D01*
X006201Y016511D02*
X006161Y016511D01*
X006161Y016353D02*
X006201Y016353D01*
X006832Y016353D02*
X007796Y016353D01*
X007706Y016511D02*
X006931Y016511D01*
X008181Y016511D02*
X008182Y016511D01*
X008181Y016353D02*
X008182Y016353D01*
X008181Y016670D02*
X008182Y016670D01*
X008929Y015243D02*
X000381Y015243D01*
X000381Y014767D02*
X001829Y014767D01*
X001823Y014609D02*
X001251Y014609D01*
X003502Y016353D02*
X005531Y016353D01*
X004677Y018572D02*
X004629Y018572D01*
X004629Y018731D02*
X004835Y018731D01*
X004994Y018890D02*
X004606Y018890D01*
X004540Y019048D02*
X005541Y019048D01*
X002609Y017621D02*
X002283Y017621D01*
X009287Y010487D02*
X009401Y010487D01*
X009401Y010328D02*
X009379Y010328D01*
X009401Y010170D02*
X009401Y010170D01*
X009401Y010011D02*
X009369Y010011D01*
X009401Y009853D02*
X009263Y009853D01*
X010181Y009681D02*
X011681Y008181D01*
X013681Y008681D02*
X013681Y010181D01*
X012681Y011181D01*
X011681Y011181D01*
X012141Y011597D02*
X013245Y011597D01*
X013087Y011755D02*
X012114Y011755D01*
X011681Y012181D02*
X013056Y012181D01*
X014806Y010431D01*
X014806Y009556D01*
X015181Y009181D01*
X019181Y009181D01*
X018611Y008901D02*
X018611Y008729D01*
X018729Y008611D01*
X018805Y008611D01*
X018698Y008504D01*
X018680Y008461D01*
X014297Y008461D01*
X013961Y008797D01*
X014016Y008743D02*
X018611Y008743D01*
X018778Y008584D02*
X014175Y008584D01*
X014181Y008181D02*
X019181Y008181D01*
X018611Y009535D02*
X015223Y009535D01*
X015086Y009694D02*
X018671Y009694D01*
X017999Y010011D02*
X019666Y010011D01*
X019666Y009853D02*
X017824Y009853D01*
X017539Y009853D02*
X015086Y009853D01*
X015086Y010011D02*
X017364Y010011D01*
X017323Y010170D02*
X015195Y010170D01*
X015266Y010328D02*
X017354Y010328D01*
X017401Y010487D02*
X015266Y010487D01*
X015243Y010645D02*
X017401Y010645D01*
X017401Y010804D02*
X015084Y010804D01*
X014671Y010962D02*
X017401Y010962D01*
X017401Y011121D02*
X014513Y011121D01*
X014354Y011279D02*
X017401Y011279D01*
X017401Y011438D02*
X014196Y011438D01*
X014037Y011597D02*
X017401Y011597D01*
X017401Y011755D02*
X013879Y011755D01*
X013720Y011914D02*
X017401Y011914D01*
X017401Y012072D02*
X013562Y012072D01*
X013403Y012231D02*
X017401Y012231D01*
X017401Y012389D02*
X013244Y012389D01*
X013682Y012741D02*
X013682Y013181D01*
X013682Y013182D01*
X013682Y013621D01*
X013864Y013621D01*
X014121Y013364D01*
X014121Y013182D01*
X014405Y013182D01*
X014346Y013341D02*
X014121Y013341D01*
X014121Y013182D02*
X013682Y013182D01*
X013682Y013181D02*
X014121Y013181D01*
X014121Y012999D01*
X013864Y012741D01*
X013682Y012741D01*
X013681Y012865D02*
X013682Y012865D01*
X013681Y013023D02*
X013682Y013023D01*
X013681Y013181D02*
X013682Y013181D01*
X013681Y013182D02*
X013681Y013181D01*
X013681Y013341D02*
X013682Y013341D01*
X013681Y013499D02*
X013682Y013499D01*
X013986Y013499D02*
X014346Y013499D01*
X014806Y013431D02*
X017431Y013431D01*
X017681Y013681D01*
X018931Y013681D01*
X019289Y013975D02*
X019666Y013975D01*
X019666Y014133D02*
X019130Y014133D01*
X019391Y013816D02*
X019666Y013816D01*
X019666Y013658D02*
X019391Y013658D01*
X019391Y013499D02*
X019666Y013499D01*
X019666Y013341D02*
X019241Y013341D01*
X019114Y013121D02*
X018932Y013121D01*
X018932Y012682D01*
X019371Y012682D01*
X019371Y012864D01*
X019114Y013121D01*
X019212Y013023D02*
X019666Y013023D01*
X019666Y012865D02*
X019370Y012865D01*
X019371Y012706D02*
X019666Y012706D01*
X019666Y012548D02*
X019371Y012548D01*
X019371Y012499D02*
X019371Y012681D01*
X018932Y012681D01*
X018932Y012682D01*
X018931Y012682D01*
X018931Y013121D01*
X018749Y013121D01*
X018491Y012864D01*
X018491Y012682D01*
X018931Y012682D01*
X018931Y012681D01*
X018491Y012681D01*
X018491Y012499D01*
X018684Y012306D01*
X018491Y012114D01*
X018491Y011932D01*
X018931Y011932D01*
X018931Y012241D01*
X018931Y012681D01*
X018932Y012681D01*
X018932Y012241D01*
X018932Y011932D01*
X019371Y011932D01*
X019371Y012114D01*
X019179Y012306D01*
X019371Y012499D01*
X019261Y012389D02*
X019666Y012389D01*
X019666Y012231D02*
X019254Y012231D01*
X019371Y012072D02*
X019666Y012072D01*
X019666Y011914D02*
X019371Y011914D01*
X019371Y011931D02*
X018932Y011931D01*
X018932Y011932D01*
X018931Y011932D01*
X018931Y011931D01*
X018932Y011931D01*
X018932Y011491D01*
X019114Y011491D01*
X019371Y011749D01*
X019371Y011931D01*
X019371Y011755D02*
X019666Y011755D01*
X019666Y011597D02*
X019219Y011597D01*
X019122Y011391D02*
X018741Y011391D01*
X018471Y011122D01*
X018471Y010741D01*
X018741Y010471D01*
X019122Y010471D01*
X019391Y010741D01*
X019391Y011122D01*
X019122Y011391D01*
X019234Y011279D02*
X019666Y011279D01*
X019666Y011121D02*
X019391Y011121D01*
X019391Y010962D02*
X019666Y010962D01*
X019666Y010804D02*
X019391Y010804D01*
X019296Y010645D02*
X019666Y010645D01*
X019666Y010487D02*
X019137Y010487D01*
X018726Y010487D02*
X017961Y010487D01*
X017961Y010645D02*
X018567Y010645D01*
X018471Y010804D02*
X017961Y010804D01*
X017961Y010962D02*
X018471Y010962D01*
X018471Y011121D02*
X017961Y011121D01*
X017961Y011279D02*
X018629Y011279D01*
X018749Y011491D02*
X018931Y011491D01*
X018931Y011931D01*
X018491Y011931D01*
X018491Y011749D01*
X018749Y011491D01*
X018644Y011597D02*
X017961Y011597D01*
X017961Y011755D02*
X018491Y011755D01*
X018491Y011914D02*
X017961Y011914D01*
X017961Y012072D02*
X018491Y012072D01*
X018609Y012231D02*
X017961Y012231D01*
X017961Y012389D02*
X018601Y012389D01*
X018491Y012548D02*
X018014Y012548D01*
X018040Y012706D02*
X018491Y012706D01*
X018493Y012865D02*
X017993Y012865D01*
X017792Y013023D02*
X018651Y013023D01*
X018622Y013341D02*
X017736Y013341D01*
X017561Y013182D02*
X019666Y013182D01*
X018932Y013023D02*
X018931Y013023D01*
X018931Y012865D02*
X018932Y012865D01*
X018931Y012706D02*
X018932Y012706D01*
X018931Y012548D02*
X018932Y012548D01*
X018931Y012389D02*
X018932Y012389D01*
X018931Y012231D02*
X018932Y012231D01*
X018931Y012072D02*
X018932Y012072D01*
X018931Y011914D02*
X018932Y011914D01*
X018931Y011755D02*
X018932Y011755D01*
X018931Y011597D02*
X018932Y011597D01*
X019666Y011438D02*
X017961Y011438D01*
X018009Y010328D02*
X019666Y010328D01*
X019666Y010170D02*
X018040Y010170D01*
X017681Y010181D02*
X017681Y012681D01*
X017369Y012865D02*
X013987Y012865D01*
X014121Y013023D02*
X014564Y013023D01*
X015049Y013023D02*
X017571Y013023D01*
X017420Y013816D02*
X015072Y013816D01*
X013664Y015560D02*
X011961Y015560D01*
X011961Y015719D02*
X013721Y015719D01*
X013727Y015877D02*
X011961Y015877D01*
X011961Y016036D02*
X013885Y016036D01*
X014181Y018681D02*
X014681Y018681D01*
X014652Y019048D02*
X014465Y019048D01*
X009998Y015243D02*
X009790Y015243D01*
X009839Y015402D02*
X009718Y015402D01*
X010172Y013499D02*
X011117Y013499D01*
X011011Y013341D02*
X010418Y013341D01*
X010461Y012865D02*
X011116Y012865D01*
X011681Y012865D02*
X011682Y012865D01*
X011681Y013023D02*
X011682Y013023D01*
X011681Y013341D02*
X011682Y013341D01*
X011681Y013499D02*
X011682Y013499D01*
X012794Y011438D02*
X013404Y011438D01*
X013562Y011279D02*
X012979Y011279D01*
X013138Y011121D02*
X013721Y011121D01*
X013879Y010962D02*
X013296Y010962D01*
X013455Y010804D02*
X014038Y010804D01*
X014197Y010645D02*
X013613Y010645D01*
X013772Y010487D02*
X014346Y010487D01*
X014346Y010328D02*
X013924Y010328D01*
X013961Y010170D02*
X014418Y010170D01*
X014526Y010011D02*
X013961Y010011D01*
X013961Y009853D02*
X014526Y009853D01*
X014526Y009694D02*
X013961Y009694D01*
X013961Y009535D02*
X014526Y009535D01*
X014590Y009377D02*
X013961Y009377D01*
X013961Y009218D02*
X014748Y009218D01*
X014907Y009060D02*
X013961Y009060D01*
X013681Y008681D02*
X014181Y008181D01*
X012663Y010804D02*
X012214Y010804D01*
X015492Y005096D02*
X016446Y005096D01*
X016287Y004938D02*
X015334Y004938D01*
X015175Y004779D02*
X016221Y004779D01*
X016221Y004621D02*
X015017Y004621D01*
X014858Y004462D02*
X016250Y004462D01*
X016409Y004304D02*
X014699Y004304D01*
X017846Y001450D02*
X018676Y001450D01*
X018802Y001608D02*
X018004Y001608D01*
X018163Y001767D02*
X018818Y001767D01*
X018695Y001925D02*
X018321Y001925D01*
X018480Y002084D02*
X018640Y002084D01*
X019622Y000816D02*
X019666Y000816D01*
D21*
X016181Y006181D03*
X017181Y007181D03*
X017681Y010181D03*
X017681Y012681D03*
X009431Y015181D03*
X007681Y013681D03*
X005181Y011181D03*
X004181Y012681D03*
X003181Y014181D03*
X002181Y014681D03*
X005681Y009181D03*
X002181Y005681D03*
X004181Y005181D03*
X007181Y002681D03*
X009681Y001681D03*
X010681Y003681D03*
M02*
