%
M48
M72
T01C0.0197
T02C0.0276
T03C0.0315
T04C0.0320
T05C0.0400
T06C0.0748
%
T01
X4181Y5181
X2181Y5681
X5681Y9181
X5181Y11181
X4181Y12681
X3181Y14181
X2181Y14681
X7681Y13681
X9431Y15181
X17181Y7181
X16181Y6181
X17681Y10181
X17681Y12681
X10681Y3681
X9681Y1681
X7181Y2681
T02
X13681Y5181
X13681Y6181
X8181Y16681
X8181Y17681
T03
X2101Y17201
X2791Y17201
X3101Y16581
X2431Y16581
X1731Y16581
T04
X2431Y12806
X2431Y9806
X8681Y10181
X8681Y9181
X8681Y8181
X8681Y7181
X8681Y6181
X8681Y5181
X8681Y4181
X8681Y3181
X8681Y2181
X8681Y1181
X11681Y1181
X11681Y2181
X11681Y3181
X11681Y4181
X11681Y5181
X11681Y6181
X11681Y7181
X11681Y8181
X11681Y9181
X11681Y10181
X11681Y11181
X11681Y12181
X11681Y13181
X11681Y14181
X10181Y15681
X10181Y16681
X10681Y18431
X10681Y19431
X8681Y19181
X7681Y19181
X8681Y14181
X8681Y13181
X8681Y12181
X8681Y11181
X13681Y13181
X13681Y14181
X14806Y13431
X16181Y15181
X14181Y15681
X14181Y18681
X19181Y15181
X18931Y13681
X18931Y12681
X18931Y11931
X18931Y10931
X14806Y10431
X16681Y4681
X16681Y1681
X4431Y1931
X3431Y1931
T05
X681Y1181
X681Y2181
X681Y3181
X681Y4181
X681Y6181
X681Y7181
X681Y8181
X681Y9181
X681Y11181
X681Y12181
X681Y13181
X681Y14181
X6181Y16681
X6181Y17681
X6181Y18681
X15681Y18931
X16681Y18931
X17681Y18931
X18931Y18681
X18931Y17681
X18931Y16681
X19181Y9181
X19181Y8181
X19181Y7181
X19181Y6181
X19181Y4181
X19181Y3181
X19181Y2181
X19181Y1181
X7181Y4681
X7181Y5681
X7181Y6681
X6681Y681
X5681Y681
X4681Y681
X3681Y681
X2681Y681
T06
X994Y18681
X3868Y18681
M30
