G75*
G70*
%OFA0B0*%
%FSLAX24Y24*%
%IPPOS*%
%LPD*%
%AMOC8*
5,1,8,0,0,1.08239X$1,22.5*
%
%ADD10C,0.0000*%
%ADD11C,0.0520*%
%ADD12R,0.0650X0.0650*%
%ADD13C,0.0650*%
%ADD14OC8,0.0520*%
%ADD15R,0.0740X0.0740*%
%ADD16C,0.0740*%
%ADD17C,0.0515*%
%ADD18C,0.1122*%
%ADD19C,0.0600*%
%ADD20C,0.0317*%
%ADD21C,0.0160*%
D10*
X000181Y000181D02*
X000181Y019866D01*
X019866Y019866D01*
X019866Y000181D01*
X000181Y000181D01*
D11*
X008421Y001181D02*
X008941Y001181D01*
X008941Y002181D02*
X008421Y002181D01*
X008421Y003181D02*
X008941Y003181D01*
X008941Y004181D02*
X008421Y004181D01*
X008421Y005181D02*
X008941Y005181D01*
X008941Y006181D02*
X008421Y006181D01*
X008421Y007181D02*
X008941Y007181D01*
X008941Y008181D02*
X008421Y008181D01*
X008421Y009181D02*
X008941Y009181D01*
X008941Y010181D02*
X008421Y010181D01*
X008421Y011181D02*
X008941Y011181D01*
X008941Y012181D02*
X008421Y012181D01*
X008421Y013181D02*
X008941Y013181D01*
X008941Y014181D02*
X008421Y014181D01*
X011421Y014181D02*
X011941Y014181D01*
X011941Y013181D02*
X011421Y013181D01*
X011421Y012181D02*
X011941Y012181D01*
X011941Y011181D02*
X011421Y011181D01*
X011421Y010181D02*
X011941Y010181D01*
X011941Y009181D02*
X011421Y009181D01*
X011421Y008181D02*
X011941Y008181D01*
X011941Y007181D02*
X011421Y007181D01*
X011421Y006181D02*
X011941Y006181D01*
X011941Y005181D02*
X011421Y005181D01*
X011421Y004181D02*
X011941Y004181D01*
X011941Y003181D02*
X011421Y003181D01*
X011421Y002181D02*
X011941Y002181D01*
X011941Y001181D02*
X011421Y001181D01*
D12*
X013681Y006181D03*
X008181Y017681D03*
D13*
X008181Y016681D03*
X013681Y005181D03*
D14*
X016681Y004681D03*
X016681Y001681D03*
X014806Y010431D03*
X013681Y013181D03*
X013681Y014181D03*
X014806Y013431D03*
X016181Y015181D03*
X014181Y015681D03*
X014181Y018681D03*
X010681Y018431D03*
X010681Y019431D03*
X008681Y019181D03*
X007681Y019181D03*
X010181Y016681D03*
X010181Y015681D03*
X002431Y012806D03*
X002431Y009806D03*
X003431Y001931D03*
X004431Y001931D03*
X018931Y010931D03*
X018931Y011931D03*
X018931Y012681D03*
X018931Y013681D03*
X019181Y015181D03*
D15*
X018931Y016681D03*
X015681Y018931D03*
X019181Y009181D03*
X019181Y004181D03*
X007181Y006681D03*
X002681Y000681D03*
X000681Y004181D03*
X000681Y009181D03*
X000681Y014181D03*
D16*
X000681Y013181D03*
X000681Y012181D03*
X000681Y011181D03*
X000681Y008181D03*
X000681Y007181D03*
X000681Y006181D03*
X000681Y003181D03*
X000681Y002181D03*
X000681Y001181D03*
X003681Y000681D03*
X004681Y000681D03*
X005681Y000681D03*
X006681Y000681D03*
X007181Y004681D03*
X007181Y005681D03*
X018931Y017681D03*
X018931Y018681D03*
X017681Y018931D03*
X016681Y018931D03*
X019181Y008181D03*
X019181Y007181D03*
X019181Y006181D03*
X019181Y003181D03*
X019181Y002181D03*
X019181Y001181D03*
D17*
X003101Y016581D03*
X002431Y016581D03*
X002101Y017201D03*
X002791Y017201D03*
X001731Y016581D03*
D18*
X000994Y018681D03*
X003868Y018681D03*
D19*
X005881Y018681D02*
X006481Y018681D01*
X006481Y017681D02*
X005881Y017681D01*
X005881Y016681D02*
X006481Y016681D01*
D20*
X009431Y015181D03*
X007681Y013681D03*
X005181Y011181D03*
X004181Y012681D03*
X003181Y014181D03*
X002181Y014681D03*
X005681Y009181D03*
X002181Y005681D03*
X004181Y005181D03*
X007181Y002681D03*
X009681Y001681D03*
X010681Y003681D03*
X016181Y006181D03*
X017181Y007181D03*
X017681Y010181D03*
X017681Y012681D03*
D21*
X017681Y013681D01*
X019181Y015181D01*
X019181Y015681D01*
X018931Y015931D01*
X018931Y016681D01*
X014181Y018681D02*
X009681Y014181D01*
X008681Y014181D01*
X007681Y013681D02*
X004681Y017181D01*
X002791Y017201D01*
X003101Y016581D02*
X003101Y016261D01*
X003181Y016181D01*
X003681Y016181D01*
X005681Y014181D01*
X005681Y010181D01*
X007181Y008681D01*
X009181Y008681D01*
X009681Y008181D01*
X009681Y001681D01*
X008681Y001181D02*
X007681Y001181D01*
X007181Y001681D01*
X007181Y002681D01*
X006681Y001681D02*
X005681Y002181D01*
X005681Y009181D01*
X005181Y011181D02*
X005181Y001681D01*
X005681Y000681D01*
X006681Y000681D02*
X006681Y001681D01*
X004431Y001931D02*
X004431Y004681D01*
X004181Y004931D01*
X004181Y005181D01*
X002181Y005681D02*
X002181Y007181D01*
X002431Y007431D01*
X002431Y009806D01*
X003181Y008181D02*
X003181Y014181D01*
X002431Y014431D02*
X002181Y014681D01*
X003681Y015081D02*
X003681Y013181D01*
X004181Y012681D01*
X003681Y015081D02*
X002431Y016581D01*
X009431Y017681D02*
X009431Y015181D01*
X010681Y013681D02*
X010681Y009681D01*
X011181Y009181D01*
X011681Y009181D01*
X011181Y009181D02*
X010681Y008681D01*
X010681Y003681D01*
X016681Y004681D02*
X016681Y010681D01*
X016931Y010931D01*
X018931Y010931D01*
X017681Y010181D02*
X017181Y009681D01*
X017181Y007181D01*
X010681Y013681D02*
X011181Y014181D01*
X011681Y014181D01*
X009431Y017681D02*
X009681Y018181D01*
X010681Y018431D01*
X003181Y008181D02*
X002681Y007181D01*
X002681Y000681D01*
X003681Y000681D02*
X004431Y001931D01*
M02*
